<?xml version="1.0" encoding="UTF-8" standalone="no"?>
<svg
        xmlns:dc="http://purl.org/dc/elements/1.1/"
        xmlns:cc="http://creativecommons.org/ns#"
        xmlns:rdf="http://www.w3.org/1999/02/22-rdf-syntax-ns#"
        xmlns="http://www.w3.org/2000/svg"
        xmlns:sodipodi="http://sodipodi.sourceforge.net/DTD/sodipodi-0.dtd"
        xmlns:inkscape="http://www.inkscape.org/namespaces/inkscape"
        version="1.1"
        id="svg2"
        xml:space="preserve"
        width="885.91998"
        height="666.66669"
        viewBox="0 0 885.91998 666.66669"
        sodipodi:docname="developerImage.eps"><metadata
     id="metadata8"><rdf:RDF><cc:Work
         rdf:about=""><dc:format>image/svg+xml</dc:format><dc:type
        rdf:resource="http://purl.org/dc/dcmitype/StillImage"/></cc:Work></rdf:RDF></metadata>
    <defs
            id="defs6"><clipPath
       clipPathUnits="userSpaceOnUse"
       id="clipPath22"><path
         d="M 4546,1352.67 H 1841.72 v 1908.37 c 0,52.31 42.42,94.73 94.74,94.73 h 2514.8 c 52.33,0 94.74,-42.42 94.74,-94.73 v -493.09 h -100.38 v 489.7 H 1937.32 V 1716.77 h 2508.3 V 1877.4 H 4546 v -524.73"
         id="path20" /></clipPath>
        <linearGradient
                x1="0"
                y1="0"
                x2="1"
                y2="0"
                gradientUnits="userSpaceOnUse"
                gradientTransform="matrix(3004.29,0,0,-3004.29,1760.15,2354.22)"
                spreadMethod="pad"
                id="linearGradient28"><stop
         style="stop-opacity:1;stop-color:#40d5e6"
         offset="0"
         id="stop24" />
            <stop
                    style="stop-opacity:1;stop-color:#5577ff"
                    offset="1"
                    id="stop26"/></linearGradient>
        <clipPath
                clipPathUnits="userSpaceOnUse"
                id="clipPath38"><path
         d="m 4445.62,1716.77 h -2508.3 v 1540.88 h 2508.3 v -489.7 h -799.68 c -22.17,0 -40.14,-17.97 -40.14,-40.14 v -810.26 c 0,-22.17 17.97,-40.15 40.14,-40.15 h 799.68 v -160.63"
         id="path36" /></clipPath>
        <linearGradient
                x1="0"
                y1="0"
                x2="1"
                y2="0"
                gradientUnits="userSpaceOnUse"
                gradientTransform="matrix(2508.3,0,0,-2508.3,1937.32,2487.21)"
                spreadMethod="pad"
                id="linearGradient46"><stop
         style="stop-opacity:1;stop-color:#404b61"
         offset="0"
         id="stop40" />
            <stop
                    style="stop-opacity:1;stop-color:#404b61"
                    offset="0.46824067"
                    id="stop42"/>
            <stop
                    style="stop-opacity:1;stop-color:#2f3e5c"
                    offset="1"
                    id="stop44"/></linearGradient>
        <clipPath
                clipPathUnits="userSpaceOnUse"
                id="clipPath60"><path
         d="m 5255.93,1060.57 c -34.08,155.74 39.56,194.61 110.77,232.18 58.2,30.73 113.17,59.73 110.24,151.52 -3.88,121.68 79.01,165.94 152.14,205 54.41,29.06 105.79,56.5 113.45,111.87 18.45,133.22 141.33,298.8 142.56,300.45 l 7.64,-5.71 c -1.23,-1.62 -122.65,-165.27 -140.75,-296.06 -8.33,-60.16 -61.81,-88.72 -118.41,-118.96 -74.14,-39.59 -150.8,-80.53 -147.11,-196.29 3.12,-97.73 -57.09,-129.51 -115.31,-160.24 -71.19,-37.57 -138.44,-73.06 -105.91,-221.72 z"
         id="path58" /></clipPath>
        <linearGradient
                x1="0"
                y1="0"
                x2="1"
                y2="0"
                gradientUnits="userSpaceOnUse"
                gradientTransform="matrix(645.381,0,0,-645.381,5247.35,1561.07)"
                spreadMethod="pad"
                id="linearGradient66"><stop
         style="stop-opacity:1;stop-color:#3076a1"
         offset="0"
         id="stop62" />
            <stop
                    style="stop-opacity:1;stop-color:#639c38"
                    offset="1"
                    id="stop64"/></linearGradient>
        <clipPath
                clipPathUnits="userSpaceOnUse"
                id="clipPath76"><path
         d="m 5203.25,1176.7 c 30.98,-42.92 59.1,-64.77 85.88,-66.76 37.43,-2.77 71.54,32.77 111.04,73.91 50.9,53.01 108.58,113.08 195.78,120.62 104.73,9.07 114.05,103.14 123.07,194.1 8.06,81.31 15.66,158.11 90.15,168.91 70.2,10.17 115.37,33.73 134.27,70.05 15.76,30.27 12.47,69.36 -9.55,113.04 -20.85,41.36 9.23,99.62 41.07,161.27 34.55,66.89 70.26,136.07 34.47,178.71 -5.39,6.42 -11.93,9.68 -19.98,9.98 -40.43,1.34 -109.03,-69.25 -181.63,-144.09 -84.15,-86.76 -171.14,-176.42 -234.8,-176.43 l -2.43,0.04 c -57.53,2.14 -77.45,-64.94 -100.5,-142.59 -25.32,-85.36 -54.03,-182.11 -142.78,-203.24 -70.81,-16.87 -101.79,-26.27 -110.36,-40.84 -6.06,-10.27 -1.89,-25.12 5.02,-49.73 5.08,-18.12 11.39,-40.67 16.16,-70.34 18.6,-115.96 -24.11,-182.11 -34.88,-196.61 z m 90.08,-76.44 c -1.63,0 -3.26,0.06 -4.91,0.18 -30.8,2.28 -60.98,25.69 -95.01,73.63 l -2.13,3.01 2.39,2.82 c 0.54,0.67 55.08,67.12 35.06,191.9 -4.68,29.12 -10.92,51.39 -15.94,69.28 -7.33,26.12 -12.16,43.36 -4.06,57.13 10.29,17.47 38.08,26.63 116.38,45.28 83.38,19.86 111.25,113.8 135.85,196.68 23.17,78.06 45.11,151.69 109.98,149.41 59.62,-2.28 150.16,91.14 230.03,173.49 74.13,76.41 144.08,148.4 188.82,146.98 10.74,-0.39 19.8,-4.89 26.93,-13.38 39.88,-47.49 2.68,-119.54 -33.29,-189.21 -30.69,-59.43 -59.68,-115.57 -41.03,-152.6 23.45,-46.52 26.74,-88.63 9.49,-121.73 -20.39,-39.18 -67.95,-64.45 -141.35,-75.08 -67.11,-9.74 -74.35,-82.92 -82.04,-160.41 -8.95,-90.43 -19.12,-192.91 -131.73,-202.66 -83.62,-7.24 -139.99,-65.94 -189.72,-117.73 -39.55,-41.19 -73.93,-76.99 -113.72,-76.99 z"
         id="path74" /></clipPath>
        <linearGradient
                x1="0"
                y1="0"
                x2="1"
                y2="0"
                gradientUnits="userSpaceOnUse"
                gradientTransform="matrix(842.637,0,0,-842.637,5191.28,1655.17)"
                spreadMethod="pad"
                id="linearGradient82"><stop
         style="stop-opacity:1;stop-color:#3076a1"
         offset="0"
         id="stop78" />
            <stop
                    style="stop-opacity:1;stop-color:#639c38"
                    offset="1"
                    id="stop80"/></linearGradient>
        <clipPath
                clipPathUnits="userSpaceOnUse"
                id="clipPath92"><path
         d="m 5098.29,2422.88 c -7.45,0 -13.04,-1.75 -17.21,-5.28 -17.53,-14.92 -16.17,-65.79 -13.69,-158.15 0.82,-30.64 1.75,-65.37 2.21,-105.56 1.06,-91.28 28.6,-149.52 48.7,-192.05 27.67,-58.57 44.38,-93.91 -46.01,-146 -35.43,-20.43 -55.93,-43.93 -62.65,-71.85 -13.03,-54.19 28.86,-118.74 69.38,-181.17 15.73,-24.25 32,-49.3 44.9,-73.54 16.74,-31.43 33.68,-79.7 51.62,-130.81 34.87,-99.32 74.39,-211.9 118.79,-215.94 16.95,-1.51 34.78,13.84 52.99,45.7 42.68,74.69 40.25,139.22 37.45,213.96 -3.74,99.91 -7.99,213.16 97.78,380.33 42.48,67.17 57.21,120.08 44.99,161.75 -14.95,51.01 -67.57,75.57 -114,97.23 -34.38,16.04 -64.09,29.9 -70.11,52.09 -2.97,10.97 0.03,22.73 9.17,35.98 28.79,41.69 38.33,73.09 29.17,96 -13.19,33.03 -66.81,48.34 -117.53,58.95 -63.88,13.38 -85.63,54 -103.11,86.62 -13.09,24.43 -24.39,45.52 -49.71,50.33 -4.91,0.94 -9.28,1.41 -13.13,1.41 z m 198.52,-1289.99 c -1.11,0 -2.23,0.05 -3.34,0.16 -50.51,4.6 -89.35,115.25 -126.91,222.26 -17.82,50.76 -34.65,98.71 -51.05,129.48 -12.7,23.88 -28.86,48.77 -44.49,72.85 -41.61,64.11 -84.64,130.41 -70.63,188.58 7.36,30.61 29.32,56.07 67.14,77.87 82.78,47.71 70.05,74.64 42.15,133.67 -20.48,43.32 -48.52,102.65 -49.61,196.01 -0.46,40.13 -1.38,74.82 -2.21,105.43 -2.64,98.4 -3.96,147.78 17.05,165.65 8.7,7.4 20.87,9.3 38.29,5.99 29.8,-5.67 42.68,-29.74 56.33,-55.2 17.4,-32.5 37.13,-69.32 96.66,-81.78 55.87,-11.69 109.61,-27.63 124.43,-64.76 10.43,-26.1 0.57,-60.43 -30.18,-104.95 -7.45,-10.79 -10.01,-19.97 -7.81,-28.06 4.87,-17.93 32.7,-30.91 64.94,-45.95 45.86,-21.41 102.95,-48.05 119.12,-103.2 13.03,-44.46 -2.05,-99.91 -46.09,-169.51 -104.19,-164.68 -100,-276.37 -96.31,-374.89 2.75,-73.02 5.33,-141.98 -38.7,-219.03 -19.43,-34.02 -38.7,-50.61 -58.78,-50.62 z"
         id="path90" /></clipPath>
        <linearGradient
                x1="0"
                y1="0"
                x2="1"
                y2="0"
                gradientUnits="userSpaceOnUse"
                gradientTransform="matrix(543.525,0,0,-543.525,4997.69,1782.66)"
                spreadMethod="pad"
                id="linearGradient98"><stop
         style="stop-opacity:1;stop-color:#3076a1"
         offset="0"
         id="stop94" />
            <stop
                    style="stop-opacity:1;stop-color:#639c38"
                    offset="1"
                    id="stop96"/></linearGradient>
        <clipPath
                clipPathUnits="userSpaceOnUse"
                id="clipPath108"><path
         d="m 5297.81,1073.84 -9.08,2.87 c 50.91,160.95 -41.2,522.06 -68.64,609.94 -13.5,43.21 -1.03,108.27 11.04,171.18 15.58,81.25 31.7,165.28 -9.4,196.77 -77.15,59.15 -73.08,196 -72.88,201.8 l 9.52,-0.36 c -0.04,-1.36 -4.07,-137.73 69.16,-193.88 45.77,-35.07 29.09,-122.03 12.95,-206.12 -11.83,-61.76 -24.08,-125.61 -11.31,-166.55 33.97,-108.68 119.44,-455.09 68.64,-615.65 z"
         id="path106" /></clipPath>
        <linearGradient
                x1="0"
                y1="0"
                x2="1"
                y2="0"
                gradientUnits="userSpaceOnUse"
                gradientTransform="matrix(164.795,0,0,-164.795,5148.75,1665.12)"
                spreadMethod="pad"
                id="linearGradient114"><stop
         style="stop-opacity:1;stop-color:#3076a1"
         offset="0"
         id="stop110" />
            <stop
                    style="stop-opacity:1;stop-color:#639c38"
                    offset="1"
                    id="stop112"/></linearGradient>
        <clipPath
                clipPathUnits="userSpaceOnUse"
                id="clipPath124"><path
         d="m 5229.57,1111.08 c -37.23,0 -71.77,131.27 -119.07,191.46 -55.8,71.02 -78.63,182.63 -144.58,263.79 -65.94,81.16 -251.1,106.52 -169.93,235.88 17.92,28.55 29.28,54.75 36.03,79.08 13.55,6.45 22.91,20.26 22.91,36.26 V 2153 c 2.93,0.55 5.93,0.83 8.93,0.83 19.61,0 39.78,-11.68 48.8,-34.57 65.95,-167.4 194.74,-139.11 179.94,-212.31 -33.54,-165.89 68.63,-188.43 170.23,-262 101.59,-73.55 0,-145.81 -5.07,-259.95 -5.07,-114.14 37.9,-196.6 -7.76,-260.01 -6.96,-9.66 -13.74,-13.91 -20.43,-13.91"
         id="path122" /></clipPath>
        <linearGradient
                x1="0"
                y1="0"
                x2="1"
                y2="0"
                gradientUnits="userSpaceOnUse"
                gradientTransform="matrix(532.021,0,0,-532.021,4775.78,1632.46)"
                spreadMethod="pad"
                id="linearGradient130"><stop
         style="stop-opacity:1;stop-color:#3076a1"
         offset="0"
         id="stop126" />
            <stop
                    style="stop-opacity:1;stop-color:#639c38"
                    offset="1"
                    id="stop128"/></linearGradient>
        <clipPath
                clipPathUnits="userSpaceOnUse"
                id="clipPath142"><path
         d="m 5209.98,1122.29 c 0,0 37.52,92.8 -30.77,224.7 -68.3,131.92 -123.57,111.62 41.06,213.1 164.62,101.47 1.03,421.1 141.17,461.68 140.14,40.59 261.9,557.93 368.45,492.05 106.55,-65.87 -35.52,-319.55 40.58,-395.65 76.11,-76.11 86.26,-172.95 -71.02,-251.35 -157.29,-78.42 111.62,-377.77 -101.47,-469.09 -213.09,-91.32 -151.97,-449.41 -388,-275.44 z"
         id="path140" /></clipPath>
        <linearGradient
                x1="0"
                y1="0"
                x2="1"
                y2="0"
                gradientUnits="userSpaceOnUse"
                gradientTransform="matrix(447.609,1740.7,1740.7,-447.609,5131.99,427.07)"
                spreadMethod="pad"
                id="linearGradient148"><stop
         style="stop-opacity:1;stop-color:#3076a1"
         offset="0"
         id="stop144" />
            <stop
                    style="stop-opacity:1;stop-color:#639c38"
                    offset="1"
                    id="stop146"/></linearGradient>
        <clipPath
                clipPathUnits="userSpaceOnUse"
                id="clipPath162"><path
         d="m 5295.01,1024.71 c -0.27,11.75 -5.96,288.5 45.81,335.08 52.86,47.58 63.01,131.66 64.36,177.53 1.77,59.79 78.99,95.28 82.29,96.75 l 3.91,-8.68 c -0.75,-0.34 -75.09,-34.53 -76.68,-88.34 -1.7,-57.9 -14.79,-136.89 -67.52,-184.34 -48.53,-43.69 -42.71,-324.95 -42.64,-327.79 z"
         id="path160" /></clipPath>
        <linearGradient
                x1="0"
                y1="0"
                x2="1"
                y2="0"
                gradientUnits="userSpaceOnUse"
                gradientTransform="matrix(196.68,0,0,-196.68,5294.7,1329.39)"
                spreadMethod="pad"
                id="linearGradient168"><stop
         style="stop-opacity:1;stop-color:#3076a1"
         offset="0"
         id="stop164" />
            <stop
                    style="stop-opacity:1;stop-color:#639c38"
                    offset="1"
                    id="stop166"/></linearGradient>
        <clipPath
                clipPathUnits="userSpaceOnUse"
                id="clipPath178"><path
         d="m 5489.43,1137.66 -85.87,-325.762 h -191.89 l -85.85,325.762 z"
         id="path176" /></clipPath>
        <linearGradient
                x1="0"
                y1="0"
                x2="1"
                y2="0"
                gradientUnits="userSpaceOnUse"
                gradientTransform="matrix(363.613,0,0,-363.613,5125.82,974.79)"
                spreadMethod="pad"
                id="linearGradient184"><stop
         style="stop-opacity:1;stop-color:#ff9340"
         offset="0"
         id="stop180" />
            <stop
                    style="stop-opacity:1;stop-color:#ffce45"
                    offset="1"
                    id="stop182"/></linearGradient>
        <clipPath
                clipPathUnits="userSpaceOnUse"
                id="clipPath194"><path
         d="m 5489.43,1137.66 c 0,0 -189.02,-35.49 -189.02,-325.762 h -88.74 l -85.85,325.762 z"
         id="path192" /></clipPath>
        <linearGradient
                x1="0"
                y1="0"
                x2="1"
                y2="0"
                gradientUnits="userSpaceOnUse"
                gradientTransform="matrix(363.613,0,0,-363.613,5125.82,974.79)"
                spreadMethod="pad"
                id="linearGradient200"><stop
         style="stop-opacity:1;stop-color:#c97332"
         offset="0"
         id="stop196" />
            <stop
                    style="stop-opacity:1;stop-color:#ffce45"
                    offset="1"
                    id="stop198"/></linearGradient>
        <clipPath
                clipPathUnits="userSpaceOnUse"
                id="clipPath302"><path
         d="M 4545.89,1641.88 H 1842.67 L 1546.85,536.211 H 4841.7 Z"
         id="path300" /></clipPath>
        <linearGradient
                x1="0"
                y1="0"
                x2="1"
                y2="0"
                gradientUnits="userSpaceOnUse"
                gradientTransform="matrix(-7.28e-5,-1665.76,-1665.76,7.28e-5,3194.28,1748.77)"
                spreadMethod="pad"
                id="linearGradient308"><stop
         style="stop-opacity:1;stop-color:#40d5e6"
         offset="0"
         id="stop304" />
            <stop
                    style="stop-opacity:1;stop-color:#5577ff"
                    offset="1"
                    id="stop306"/></linearGradient>
        <clipPath
                clipPathUnits="userSpaceOnUse"
                id="clipPath412"><path
         d="m 4755.62,450.129 h -3122.7 c -47.53,0 -86.07,38.543 -86.07,86.082 H 4841.7 c 0,-47.539 -38.54,-86.082 -86.08,-86.082 z"
         id="path410" /></clipPath>
        <linearGradient
                x1="0"
                y1="0"
                x2="1"
                y2="0"
                gradientUnits="userSpaceOnUse"
                gradientTransform="matrix(3294.85,0,0,-3294.85,19.7363,493.16)"
                spreadMethod="pad"
                id="linearGradient418"><stop
         style="stop-opacity:1;stop-color:#40d5e6"
         offset="0"
         id="stop414" />
            <stop
                    style="stop-opacity:1;stop-color:#5577ff"
                    offset="1"
                    id="stop416"/></linearGradient>
        <clipPath
                clipPathUnits="userSpaceOnUse"
                id="clipPath538"><path
         d="M 4814.78,1877.4 H 4546 v 890.55 h 268.78 c 22.17,0 40.15,-17.97 40.15,-40.14 v -192.44 h -222.3 v -9.54 h 222.3 V 2153 c -22.95,-4.29 -42.53,-25.42 -38.65,-64.18 5.92,-59.3 39.58,-121.68 15.74,-207.53 -5.22,-2.49 -11.07,-3.89 -17.24,-3.89"
         id="path536" /></clipPath>
        <clipPath
                clipPathUnits="userSpaceOnUse"
                id="clipPath548"><path
         d="m 4445.62,1877.4 h 100.379 v 890.551 H 4445.62 Z"
         id="path546" /></clipPath>
        <linearGradient
                x1="0"
                y1="0"
                x2="1"
                y2="0"
                gradientUnits="userSpaceOnUse"
                gradientTransform="matrix(3004.29,0,0,-3004.29,1760.15,2354.22)"
                spreadMethod="pad"
                id="linearGradient554"><stop
         style="stop-opacity:1;stop-color:#d1f5f9"
         offset="0"
         id="stop550" />
            <stop
                    style="stop-opacity:1;stop-color:#d6deff"
                    offset="1"
                    id="stop552"/></linearGradient>
        <clipPath
                clipPathUnits="userSpaceOnUse"
                id="clipPath564"><path
         d="m 4445.62,1877.4 h -799.68 c -22.17,0 -40.14,17.98 -40.14,40.15 v 810.26 c 0,22.17 17.97,40.14 40.14,40.14 h 799.68 V 1877.4"
         id="path562" /></clipPath>
        <linearGradient
                x1="0"
                y1="0"
                x2="1"
                y2="0"
                gradientUnits="userSpaceOnUse"
                gradientTransform="matrix(2508.3,0,0,-2508.3,1937.32,2487.21)"
                spreadMethod="pad"
                id="linearGradient572"><stop
         style="stop-opacity:1;stop-color:#d1d4d9"
         offset="0"
         id="stop566" />
            <stop
                    style="stop-opacity:1;stop-color:#d1d4d9"
                    offset="0.46824067"
                    id="stop568"/>
            <stop
                    style="stop-opacity:1;stop-color:#cdd1d8"
                    offset="1"
                    id="stop570"/></linearGradient>
        <clipPath
                clipPathUnits="userSpaceOnUse"
                id="clipPath582"><path
         d="m 4832.02,1881.29 c 23.84,85.85 -9.82,148.23 -15.74,207.53 -3.88,38.76 15.7,59.89 38.65,64.18 v -235.45 c 0,-16 -9.36,-29.81 -22.91,-36.26"
         id="path580" /></clipPath>
        <linearGradient
                x1="0"
                y1="0"
                x2="1"
                y2="0"
                gradientUnits="userSpaceOnUse"
                gradientTransform="matrix(532.021,0,0,-532.021,4775.78,1632.46)"
                spreadMethod="pad"
                id="linearGradient588"><stop
         style="stop-opacity:1;stop-color:#cddee9"
         offset="0"
         id="stop584" />
            <stop
                    style="stop-opacity:1;stop-color:#dae7cf"
                    offset="1"
                    id="stop586"/></linearGradient></defs>
    <sodipodi:namedview
            pagecolor="#ffffff"
            bordercolor="#666666"
            borderopacity="1"
            objecttolerance="10"
            gridtolerance="10"
            guidetolerance="10"
            inkscape:pageopacity="0"
            inkscape:pageshadow="2"
            inkscape:window-width="640"
            inkscape:window-height="480"
            id="namedview4"/>
    <g
            id="g10"
            inkscape:groupmode="layer"
            inkscape:label="ink_ext_XXXXXX"
            transform="matrix(1.3333333,0,0,-1.3333333,0,666.66667)"><g
       id="g12"
       transform="scale(0.1)"><path
         d="M 0,0 H 6644.35 V 5000 H 0 Z"
         style="fill:#f7f7f7;fill-opacity:1;fill-rule:nonzero;stroke:none"
         id="path14" /><g
            id="g16"><g
           id="g18"
           clip-path="url(#clipPath22)"><path
             d="M 4546,1352.67 H 1841.72 v 1908.37 c 0,52.31 42.42,94.73 94.74,94.73 h 2514.8 c 52.33,0 94.74,-42.42 94.74,-94.73 v -493.09 h -100.38 v 489.7 H 1937.32 V 1716.77 h 2508.3 V 1877.4 H 4546 v -524.73"
             style="fill:url(#linearGradient28);fill-opacity:1;fill-rule:nonzero;stroke:none"
             id="path30" /></g></g><g
            id="g32"><g
           id="g34"
           clip-path="url(#clipPath38)"><path
             d="m 4445.62,1716.77 h -2508.3 v 1540.88 h 2508.3 v -489.7 h -799.68 c -22.17,0 -40.14,-17.97 -40.14,-40.14 v -810.26 c 0,-22.17 17.97,-40.15 40.14,-40.15 h 799.68 v -160.63"
             style="fill:url(#linearGradient46);fill-opacity:1;fill-rule:nonzero;stroke:none"
             id="path48" /></g></g><path
            d="m 1047.57,3260.07 h 615.02 c -11.99,60.05 -65.92,104.66 -127.68,104.66 -14.03,0 -27.83,-2.22 -41.02,-6.61 l -3.37,-1.11 -2.03,2.9 c -34.12,48.42 -89.76,77.32 -148.87,77.32 -69.22,0 -131.54,-38.44 -162.62,-100.33 l -1.71,-3.39 -3.69,0.9 c -7.95,1.97 -16.16,2.96 -24.41,2.96 -47.14,0 -88.13,-32.17 -99.62,-77.3 z m 626.27,-9.54 h -638.02 l 1.11,5.68 c 10.24,52.55 56.62,90.7 110.26,90.7 7.75,0 15.46,-0.8 23,-2.39 33.24,63.17 97.82,102.25 169.43,102.25 61.03,0 118.56,-29.28 154.62,-78.52 13.14,4 26.81,6.02 40.67,6.02 69.42,0 127.5,-49.73 138.08,-118.24 l 0.85,-5.5"
            style="fill:#6aafe8;fill-opacity:1;fill-rule:nonzero;stroke:none"
            id="path50"/><path
            d="m 3828.16,4373.26 c -2.87,-30.33 -12.4,-222.5 188.85,-326.66 201.27,104.16 191.73,296.33 188.86,326.66 -124.99,0.78 -175.86,35.59 -188.86,46.64 -12.99,-11.05 -63.87,-45.86 -188.85,-46.64 z m 188.85,-337.38 -2.16,1.11 c -226.42,115.6 -196.01,339.47 -195.68,341.72 l 0.6,4.08 h 4.11 c 143.96,0 189.2,46.39 189.64,46.85 l 3.51,3.73 3.49,-3.74 c 0.43,-0.45 45.67,-46.84 189.62,-46.84 h 4.11 l 0.61,-4.08 c 0.33,-2.25 30.74,-226.12 -195.69,-341.72 l -2.16,-1.11"
            style="fill:#6aafe8;fill-opacity:1;fill-rule:nonzero;stroke:none"
            id="path52"/><g
            id="g54"><g
           id="g56"
           clip-path="url(#clipPath60)"><path
             d="m 5255.93,1060.57 c -34.08,155.74 39.56,194.61 110.77,232.18 58.2,30.73 113.17,59.73 110.24,151.52 -3.88,121.68 79.01,165.94 152.14,205 54.41,29.06 105.79,56.5 113.45,111.87 18.45,133.22 141.33,298.8 142.56,300.45 l 7.64,-5.71 c -1.23,-1.62 -122.65,-165.27 -140.75,-296.06 -8.33,-60.16 -61.81,-88.72 -118.41,-118.96 -74.14,-39.59 -150.8,-80.53 -147.11,-196.29 3.12,-97.73 -57.09,-129.51 -115.31,-160.24 -71.19,-37.57 -138.44,-73.06 -105.91,-221.72 l -9.31,-2.04"
             style="fill:url(#linearGradient66);fill-opacity:1;fill-rule:nonzero;stroke:none"
             id="path68" /></g></g><g
            id="g70"><g
           id="g72"
           clip-path="url(#clipPath76)"><path
             d="m 5203.25,1176.7 c 30.98,-42.92 59.1,-64.77 85.88,-66.76 37.43,-2.77 71.54,32.77 111.04,73.91 50.9,53.01 108.58,113.08 195.78,120.62 104.73,9.07 114.05,103.14 123.07,194.1 8.06,81.31 15.66,158.11 90.15,168.91 70.2,10.17 115.37,33.73 134.27,70.05 15.76,30.27 12.47,69.36 -9.55,113.04 -20.85,41.36 9.23,99.62 41.07,161.27 34.55,66.89 70.26,136.07 34.47,178.71 -5.39,6.42 -11.93,9.68 -19.98,9.98 -40.43,1.34 -109.03,-69.25 -181.63,-144.09 -84.15,-86.76 -171.14,-176.42 -234.8,-176.43 l -2.43,0.04 c -57.53,2.14 -77.45,-64.94 -100.5,-142.59 -25.32,-85.36 -54.03,-182.11 -142.78,-203.24 -70.81,-16.87 -101.79,-26.27 -110.36,-40.84 -6.06,-10.27 -1.89,-25.12 5.02,-49.73 5.08,-18.12 11.39,-40.67 16.16,-70.34 18.6,-115.96 -24.11,-182.11 -34.88,-196.61 z m 90.08,-76.44 c -1.63,0 -3.26,0.06 -4.91,0.18 -30.8,2.28 -60.98,25.69 -95.01,73.63 l -2.13,3.01 2.39,2.82 c 0.54,0.67 55.08,67.12 35.06,191.9 -4.68,29.12 -10.92,51.39 -15.94,69.28 -7.33,26.12 -12.16,43.36 -4.06,57.13 10.29,17.47 38.08,26.63 116.38,45.28 83.38,19.86 111.25,113.8 135.85,196.68 23.17,78.06 45.11,151.69 109.98,149.41 59.62,-2.28 150.16,91.14 230.03,173.49 74.13,76.41 144.08,148.4 188.82,146.98 10.74,-0.39 19.8,-4.89 26.93,-13.38 39.88,-47.49 2.68,-119.54 -33.29,-189.21 -30.69,-59.43 -59.68,-115.57 -41.03,-152.6 23.45,-46.52 26.74,-88.63 9.49,-121.73 -20.39,-39.18 -67.95,-64.45 -141.35,-75.08 -67.11,-9.74 -74.35,-82.92 -82.04,-160.41 -8.95,-90.43 -19.12,-192.91 -131.73,-202.66 -83.62,-7.24 -139.99,-65.94 -189.72,-117.73 -39.55,-41.19 -73.93,-76.99 -113.72,-76.99"
             style="fill:url(#linearGradient82);fill-opacity:1;fill-rule:nonzero;stroke:none"
             id="path84" /></g></g><g
            id="g86"><g
           id="g88"
           clip-path="url(#clipPath92)"><path
             d="m 5098.29,2422.88 c -7.45,0 -13.04,-1.75 -17.21,-5.28 -17.53,-14.92 -16.17,-65.79 -13.69,-158.15 0.82,-30.64 1.75,-65.37 2.21,-105.56 1.06,-91.28 28.6,-149.52 48.7,-192.05 27.67,-58.57 44.38,-93.91 -46.01,-146 -35.43,-20.43 -55.93,-43.93 -62.65,-71.85 -13.03,-54.19 28.86,-118.74 69.38,-181.17 15.73,-24.25 32,-49.3 44.9,-73.54 16.74,-31.43 33.68,-79.7 51.62,-130.81 34.87,-99.32 74.39,-211.9 118.79,-215.94 16.95,-1.51 34.78,13.84 52.99,45.7 42.68,74.69 40.25,139.22 37.45,213.96 -3.74,99.91 -7.99,213.16 97.78,380.33 42.48,67.17 57.21,120.08 44.99,161.75 -14.95,51.01 -67.57,75.57 -114,97.23 -34.38,16.04 -64.09,29.9 -70.11,52.09 -2.97,10.97 0.03,22.73 9.17,35.98 28.79,41.69 38.33,73.09 29.17,96 -13.19,33.03 -66.81,48.34 -117.53,58.95 -63.88,13.38 -85.63,54 -103.11,86.62 -13.09,24.43 -24.39,45.52 -49.71,50.33 -4.91,0.94 -9.28,1.41 -13.13,1.41 z m 198.52,-1289.99 c -1.11,0 -2.23,0.05 -3.34,0.16 -50.51,4.6 -89.35,115.25 -126.91,222.26 -17.82,50.76 -34.65,98.71 -51.05,129.48 -12.7,23.88 -28.86,48.77 -44.49,72.85 -41.61,64.11 -84.64,130.41 -70.63,188.58 7.36,30.61 29.32,56.07 67.14,77.87 82.78,47.71 70.05,74.64 42.15,133.67 -20.48,43.32 -48.52,102.65 -49.61,196.01 -0.46,40.13 -1.38,74.82 -2.21,105.43 -2.64,98.4 -3.96,147.78 17.05,165.65 8.7,7.4 20.87,9.3 38.29,5.99 29.8,-5.67 42.68,-29.74 56.33,-55.2 17.4,-32.5 37.13,-69.32 96.66,-81.78 55.87,-11.69 109.61,-27.63 124.43,-64.76 10.43,-26.1 0.57,-60.43 -30.18,-104.95 -7.45,-10.79 -10.01,-19.97 -7.81,-28.06 4.87,-17.93 32.7,-30.91 64.94,-45.95 45.86,-21.41 102.95,-48.05 119.12,-103.2 13.03,-44.46 -2.05,-99.91 -46.09,-169.51 -104.19,-164.68 -100,-276.37 -96.31,-374.89 2.75,-73.02 5.33,-141.98 -38.7,-219.03 -19.43,-34.02 -38.7,-50.61 -58.78,-50.62"
             style="fill:url(#linearGradient98);fill-opacity:1;fill-rule:nonzero;stroke:none"
             id="path100" /></g></g><g
            id="g102"><g
           id="g104"
           clip-path="url(#clipPath108)"><path
             d="m 5297.81,1073.84 -9.08,2.87 c 50.91,160.95 -41.2,522.06 -68.64,609.94 -13.5,43.21 -1.03,108.27 11.04,171.18 15.58,81.25 31.7,165.28 -9.4,196.77 -77.15,59.15 -73.08,196 -72.88,201.8 l 9.52,-0.36 c -0.04,-1.36 -4.07,-137.73 69.16,-193.88 45.77,-35.07 29.09,-122.03 12.95,-206.12 -11.83,-61.76 -24.08,-125.61 -11.31,-166.55 33.97,-108.68 119.44,-455.09 68.64,-615.65"
             style="fill:url(#linearGradient114);fill-opacity:1;fill-rule:nonzero;stroke:none"
             id="path116" /></g></g><g
            id="g118"><g
           id="g120"
           clip-path="url(#clipPath124)"><path
             d="m 5229.57,1111.08 c -37.23,0 -71.77,131.27 -119.07,191.46 -55.8,71.02 -78.63,182.63 -144.58,263.79 -65.94,81.16 -251.1,106.52 -169.93,235.88 17.92,28.55 29.28,54.75 36.03,79.08 13.55,6.45 22.91,20.26 22.91,36.26 V 2153 c 2.93,0.55 5.93,0.83 8.93,0.83 19.61,0 39.78,-11.68 48.8,-34.57 65.95,-167.4 194.74,-139.11 179.94,-212.31 -33.54,-165.89 68.63,-188.43 170.23,-262 101.59,-73.55 0,-145.81 -5.07,-259.95 -5.07,-114.14 37.9,-196.6 -7.76,-260.01 -6.96,-9.66 -13.74,-13.91 -20.43,-13.91"
             style="fill:url(#linearGradient130);fill-opacity:1;fill-rule:nonzero;stroke:none"
             id="path132" /></g></g><path
            d="m 5323.92,1110.31 c -0.56,3.37 -56.96,337.71 -183.25,429.34 -128.78,93.43 -152.18,179.74 -197.16,383.28 l 9.31,2.05 c 44.43,-201.02 67.48,-286.24 193.44,-377.63 129.46,-93.91 184.77,-421.58 187.07,-435.48 l -9.41,-1.56"
            style="fill:#ffffff;fill-opacity:1;fill-rule:nonzero;stroke:none"
            id="path134"/><g
            id="g136"><g
           id="g138"
           clip-path="url(#clipPath142)"><path
             d="m 5209.98,1122.29 c 0,0 37.52,92.8 -30.77,224.7 -68.3,131.92 -123.57,111.62 41.06,213.1 164.62,101.47 1.03,421.1 141.17,461.68 140.14,40.59 261.9,557.93 368.45,492.05 106.55,-65.87 -35.52,-319.55 40.58,-395.65 76.11,-76.11 86.26,-172.95 -71.02,-251.35 -157.29,-78.42 111.62,-377.77 -101.47,-469.09 -213.09,-91.32 -151.97,-449.41 -388,-275.44"
             style="fill:url(#linearGradient148);fill-opacity:1;fill-rule:nonzero;stroke:none"
             id="path150" /></g></g><path
            d="m 5275.07,1023.87 c -0.24,1.19 -23.15,120.01 49.24,273.53 73.75,156.41 109.05,327.39 94.44,457.39 -7.93,70.4 37.16,97.93 80.79,124.57 42.94,26.22 87.34,53.33 84.89,122.69 -2.21,62.66 24.31,209.55 25.44,215.77 l 9.38,-1.71 c -0.28,-1.51 -27.48,-152.09 -25.29,-213.73 2.64,-74.93 -44.18,-103.51 -89.46,-131.15 -42.96,-26.24 -83.53,-51.01 -76.28,-115.37 14.8,-131.68 -20.81,-304.58 -95.29,-462.51 -70.96,-150.5 -48.76,-266.44 -48.52,-267.59 l -9.34,-1.89"
            style="fill:#ffffff;fill-opacity:1;fill-rule:nonzero;stroke:none"
            id="path152"/><path
            d="m 5447.26,1679.52 c 47.85,44.44 111.13,50.85 97.95,-15.08 -13.18,-65.92 -58.4,-84.77 -35.78,-126.21 22.6,-41.44 60.27,-82.88 -3.77,-133.75 -64.05,-50.86 -99.84,-56.5 -118.68,-152.59 -18.84,-96.06 -15.07,-161.67 -97.96,-165.77 -82.89,-4.09 -50.86,116.81 -24.49,171.44 0,0 39.56,62.33 13.18,144.19 -26.37,81.85 -77.23,126.06 30.15,153.87 107.37,27.82 107.14,93.93 139.4,123.9"
            style="fill:#ffffff;fill-opacity:1;fill-rule:nonzero;stroke:none"
            id="path154"/><g
            id="g156"><g
           id="g158"
           clip-path="url(#clipPath162)"><path
             d="m 5295.01,1024.71 c -0.27,11.75 -5.96,288.5 45.81,335.08 52.86,47.58 63.01,131.66 64.36,177.53 1.77,59.79 78.99,95.28 82.29,96.75 l 3.91,-8.68 c -0.75,-0.34 -75.09,-34.53 -76.68,-88.34 -1.7,-57.9 -14.79,-136.89 -67.52,-184.34 -48.53,-43.69 -42.71,-324.95 -42.64,-327.79 l -9.53,-0.21"
             style="fill:url(#linearGradient168);fill-opacity:1;fill-rule:nonzero;stroke:none"
             id="path170" /></g></g><g
            id="g172"><g
           id="g174"
           clip-path="url(#clipPath178)"><path
             d="m 5489.43,1137.66 -85.87,-325.762 h -191.89 l -85.85,325.762 h 363.61"
             style="fill:url(#linearGradient184);fill-opacity:1;fill-rule:nonzero;stroke:none"
             id="path186" /></g></g><g
            id="g188"><g
           id="g190"
           clip-path="url(#clipPath194)"><path
             d="m 5489.43,1137.66 c 0,0 -189.02,-35.49 -189.02,-325.762 h -88.74 l -85.85,325.762 h 363.61"
             style="fill:url(#linearGradient200);fill-opacity:1;fill-rule:nonzero;stroke:none"
             id="path202" /></g></g><path
            d="m 2106.67,1960.32 h -252.72 v 28.62 h 252.72 v -28.62"
            style="fill:#1487e3;fill-opacity:1;fill-rule:nonzero;stroke:none"
            id="path204"/><path
            d="m 1801.2,2778.45 h -403.35 v 515.82 h 9.53 v -506.29 h 393.82 v -9.53"
            style="fill:#78c2ff;fill-opacity:1;fill-rule:nonzero;stroke:none"
            id="path206"/><path
            d="m 3508.47,3118.33 h -9.53 v 531.89 h 513.3 v 447.32 h 9.54 v -456.85 h -513.31 v -522.36"
            style="fill:#78c2ff;fill-opacity:1;fill-rule:nonzero;stroke:none"
            id="path208"/><path
            d="m 5166.7,2525.83 h -534.07 v 9.54 h 524.53 v 310.11 h 9.54 v -319.65"
            style="fill:#78c2ff;fill-opacity:1;fill-rule:nonzero;stroke:none"
            id="path210"/><path
            d="m 1173.85,2094.85 c 0,0 -11.43,-160.46 19.91,-179.66 19.64,-12.04 97.95,-52.61 95.63,-60.23 -2.32,-7.61 -44.22,-67.69 -44.22,-67.69 0,0 -150.42,99.05 -155.27,130.26 -4.74,30.5 7.4,234.95 28.08,244.37 15.49,7.06 23.66,1.22 43.19,-13.27 27.38,-20.33 12.68,-53.78 12.68,-53.78"
            style="fill:#ff7e55;fill-opacity:1;fill-rule:nonzero;stroke:none"
            id="path212"/><path
            d="m 1156.36,927.109 c 0,0 -4.68,-32.468 -5.25,-37.339 -0.59,-4.879 -52.04,2.871 -52.04,2.871 l -4.17,38.648 c 0,0 55.04,0.402 61.46,-4.18"
            style="fill:#424773;fill-opacity:1;fill-rule:nonzero;stroke:none"
            id="path214"/><path
            d="m 1151.66,893.902 c 0,0 16.28,-19.57 32.06,-28.101 15.77,-8.52 40.53,-11.899 49.87,-20.742 6.72,-6.368 24.51,-33.789 -40.98,-33.239 -65.49,0.551 -97.05,-3.879 -104.06,6.641 -7.02,10.508 10.15,77.629 10.15,77.629 0,0 15.5,-5.57 52.96,-2.188"
            style="fill:#292c47;fill-opacity:1;fill-rule:nonzero;stroke:none"
            id="path216"/><path
            d="m 1413.86,927.109 c 0,0 -4.69,-32.468 -5.27,-37.339 -0.59,-4.879 -52.03,2.871 -52.03,2.871 l -4.16,38.648 c 0,0 55.04,0.402 61.46,-4.18"
            style="fill:#424773;fill-opacity:1;fill-rule:nonzero;stroke:none"
            id="path218"/><path
            d="m 1409.15,893.902 c 0,0 16.29,-19.57 32.06,-28.101 15.77,-8.52 73.79,-15.531 83.11,-24.36 6.73,-6.371 17.92,-32.031 -74.21,-29.621 -65.47,1.711 -97.05,-3.879 -104.08,6.641 -7.01,10.508 10.16,77.629 10.16,77.629 0,0 14.61,-5.949 52.96,-2.188"
            style="fill:#292c47;fill-opacity:1;fill-rule:nonzero;stroke:none"
            id="path220"/><path
            d="m 1174.82,1761.39 c 0,0 -48.34,-76.82 -44.74,-146.24 3.61,-69.44 -4.3,-143.61 -11.57,-216.13 -8.09,-80.86 -30.15,-249.13 -31.35,-292.37 -1.21,-43.26 1.58,-206.009 1.58,-206.009 l 83.85,0.629 c 0,0 29.77,328.78 44.2,362.93 14.42,34.15 73.63,281.15 76.04,308.47 2.4,27.31 -118.01,188.72 -118.01,188.72"
            style="fill:#292c47;fill-opacity:1;fill-rule:nonzero;stroke:none"
            id="path222"/><path
            d="m 1429.31,1750.98 c 0,0 19.1,-188.75 23.91,-231.25 4.8,-42.49 1.52,-226.62 3.91,-253.19 2.42,-26.55 -16.06,-307.462 -20.61,-360.95 l -92.17,0.582 c 0,0 -6.36,227.238 -6.36,337.638 0,110.41 -28.33,238.93 -60.79,311.78 -32.46,72.85 -106.76,74.57 -126.71,209.72 0,0 251.81,28.53 278.82,-14.33"
            style="fill:#292c47;fill-opacity:1;fill-rule:nonzero;stroke:none"
            id="path224"/><path
            d="m 1225.89,2408.98 c 0,0 57.6,38.48 98.05,-2.74 40.45,-41.21 60.33,-138.12 31.29,-157.47 -29.05,-19.34 -78.33,-24.41 -101.72,1.84 -23.39,26.23 -48.36,66.26 -54.49,95.48 -6.15,29.24 12.26,50.59 26.87,62.89"
            style="fill:#eea886;fill-opacity:1;fill-rule:nonzero;stroke:none"
            id="path226"/><path
            d="m 1335.64,2242.25 c 0,0 -0.75,-40.49 3.71,-49.12 4.47,-8.63 -84.06,-8.85 -84.06,-8.85 0,0 -7.19,46.94 -20.82,86.6 -13.63,39.67 101.17,-28.63 101.17,-28.63"
            style="fill:#eea886;fill-opacity:1;fill-rule:nonzero;stroke:none"
            id="path228"/><path
            d="m 1236.69,2271.53 c 0,0 8.26,-8.41 31.64,1.12 23.38,9.53 45.38,48.81 54.67,54.73 9.32,5.94 8,11.92 8,11.92 l 8.54,-7.78 10.92,1.87 c 0,0 -16.63,26.57 -4.59,41.84 12.04,15.28 -37.41,89.91 -108.86,44.34 0,0 -55.91,-30.58 -45.73,-64.07 10.2,-33.5 28.03,-70.19 45.41,-83.97"
            style="fill:#754836;fill-opacity:1;fill-rule:nonzero;stroke:none"
            id="path230"/><path
            d="m 1344.6,2194.17 c 0,0 -0.27,16.48 -7.75,18.07 -7.47,1.58 -82.5,8.8 -91.68,5.18 v -19.2 c 0,0 17.69,-10.88 99.43,-4.05"
            style="fill:#e2d2ca;fill-opacity:1;fill-rule:nonzero;stroke:none"
            id="path232"/><path
            d="m 1326.48,2351.29 c -2.7,5.39 -21.06,18.27 -22.5,-0.49 -1.44,-18.77 18.05,-38.95 25.35,-35.12 7.31,3.84 4.01,21.97 -2.85,35.61"
            style="fill:#eea886;fill-opacity:1;fill-rule:nonzero;stroke:none"
            id="path234"/><path
            d="m 1209.24,2399.07 c 0,0 -82.38,-22.09 24.11,-124.35 l -24.11,124.35"
            style="fill:#754836;fill-opacity:1;fill-rule:nonzero;stroke:none"
            id="path236"/><path
            d="m 1945.25,1961.08 -83.95,0.78 c 7.25,4.21 18.96,11.79 16.37,15.25 -3.7,4.92 -27.47,-5.89 -37.13,-6.88 -8.86,-0.9 -23.71,0.24 -34.98,-3.87 l -26.51,-11.3 24.3,-22.49 c 0,0 43.91,-6.3 56.76,-7.2 20.9,-1.47 84.85,23.42 85.9,27.2 1.91,6.8 -0.76,8.51 -0.76,8.51"
            style="fill:#eea886;fill-opacity:1;fill-rule:nonzero;stroke:none"
            id="path238"/><path
            d="m 1454.19,2171.32 c -53.39,9.38 -109.59,22.85 -109.59,22.85 l -99.43,4.06 c 0,0 -91.25,-20.09 -127.19,-36.33 -3.41,-1.54 -3.41,-81.41 -12.78,-102.35 l 29.8,-62.86 c 0,0 17.21,-124.52 20.78,-179.89 1.64,-25.43 -35.49,-238.4 -35.49,-238.4 0,0 39.78,-11.71 107.65,-19.19 67.86,-7.48 237.42,2.7 238.48,10.71 1.08,8.02 -32.83,298.45 -34.34,313.49 -2.3,23.08 6.67,129.74 6.67,129.74 12.79,-17.16 86.71,-81.59 122.8,-102.06 25.67,-14.56 88.64,-5.66 107.19,-3.78 40.14,4.12 151.04,12.05 153.21,15.99 1.73,2.36 -6.38,42.8 -11.02,44.35 -4.06,1.35 -147.22,8.42 -183.13,6.57 -14.57,-0.77 -62.1,52.31 -62.1,52.31 0,0 -82.05,131.56 -111.51,144.79"
            style="fill:#ff7e55;fill-opacity:1;fill-rule:nonzero;stroke:none"
            id="path240"/><path
            d="m 842.711,2573.24 h 262.819 v -230.6 l -40.12,40.11 H 842.711 v 190.49"
            style="fill:#ffcb55;fill-opacity:1;fill-rule:nonzero;stroke:none"
            id="path242"/><path
            d="m 4828.2,3188 h 238.32 v 238.32 H 4828.2 Z m 246.83,-8.52 h -255.35 v 255.35 h 255.35 v -255.35"
            style="fill:#6aafe8;fill-opacity:1;fill-rule:nonzero;stroke:none"
            id="path244"/><path
            d="m 5134.6,3349.72 h 567.45 v 45.39 H 5134.6 Z m 575.96,-8.51 h -584.45 v 62.42 h 584.45 v -62.42"
            style="fill:#6aafe8;fill-opacity:1;fill-rule:nonzero;stroke:none"
            id="path246"/><path
            d="m 4828.2,3059.44 h 873.85 v 45.39 H 4828.2 Z m 882.36,-8.51 h -890.88 v 62.41 h 890.88 v -62.41"
            style="fill:#6aafe8;fill-opacity:1;fill-rule:nonzero;stroke:none"
            id="path248"/><path
            d="m 4828.2,2939.57 h 550.41 v 45.39 H 4828.2 Z m 558.92,-8.52 h -567.44 v 62.43 h 567.44 v -62.43"
            style="fill:#6aafe8;fill-opacity:1;fill-rule:nonzero;stroke:none"
            id="path250"/><path
            d="m 5134.6,3230.65 h 378.77 v 45.39 H 5134.6 Z m 387.29,-8.52 h -395.78 v 62.43 h 395.78 v -62.43"
            style="fill:#6aafe8;fill-opacity:1;fill-rule:nonzero;stroke:none"
            id="path252"/><path
            d="m 4726.77,2803.82 h 1076.71 v 758.25 H 4726.77 Z M 5812,2795.31 H 4718.26 v 775.27 H 5812 v -775.27"
            style="fill:#6aafe8;fill-opacity:1;fill-rule:nonzero;stroke:none"
            id="path254"/><path
            d="m 4332.61,3917.79 h -81.83 v 9.54 h 72.3 v 72.23 h 9.53 v -81.77"
            style="fill:#6aafe8;fill-opacity:1;fill-rule:nonzero;stroke:none"
            id="path256"/><path
            d="m 3782.33,3917.79 h -81.85 v 81.77 h 9.55 v -72.23 h 72.3 v -9.54"
            style="fill:#6aafe8;fill-opacity:1;fill-rule:nonzero;stroke:none"
            id="path258"/><path
            d="m 3710.06,4468.04 h -9.54 v 81.84 h 81.78 v -9.54 h -72.24 v -72.3"
            style="fill:#6aafe8;fill-opacity:1;fill-rule:nonzero;stroke:none"
            id="path260"/><path
            d="m 4332.61,4468.07 h -9.53 v 72.23 h -72.3 v 9.54 h 81.83 v -81.77"
            style="fill:#6aafe8;fill-opacity:1;fill-rule:nonzero;stroke:none"
            id="path262"/><path
            d="m 4332.61,4121.75 h -9.53 v 224.13 h 9.53 v -224.13"
            style="fill:#6aafe8;fill-opacity:1;fill-rule:nonzero;stroke:none"
            id="path264"/><path
            d="m 3710.03,4121.75 h -9.55 v 224.13 h 9.55 v -224.13"
            style="fill:#6aafe8;fill-opacity:1;fill-rule:nonzero;stroke:none"
            id="path266"/><path
            d="m 1402.62,3350.01 c -14.06,0 -25.5,-11.43 -25.5,-25.48 0,-14.06 11.44,-25.49 25.5,-25.49 14.05,0 25.48,11.43 25.48,25.49 0,14.05 -11.43,25.48 -25.48,25.48 z m 0,-60.51 c -19.32,0 -35.03,15.71 -35.03,35.03 0,19.31 15.71,35.02 35.03,35.02 19.31,0 35.02,-15.71 35.02,-35.02 0,-19.32 -15.71,-35.03 -35.02,-35.03"
            style="fill:#78c2ff;fill-opacity:1;fill-rule:nonzero;stroke:none"
            id="path268"/><path
            d="m 4017.01,4153.29 c -14.05,0 -25.49,-11.43 -25.49,-25.49 0,-14.05 11.44,-25.49 25.49,-25.49 14.06,0 25.49,11.44 25.49,25.49 0,14.06 -11.43,25.49 -25.49,25.49 z m 0,-60.52 c -19.31,0 -35.02,15.72 -35.02,35.03 0,19.31 15.71,35.02 35.02,35.02 19.31,0 35.03,-15.71 35.03,-35.02 0,-19.31 -15.72,-35.03 -35.03,-35.03"
            style="fill:#78c2ff;fill-opacity:1;fill-rule:nonzero;stroke:none"
            id="path270"/><path
            d="m 5161.94,2899.58 c -14.05,0 -25.5,-11.44 -25.5,-25.49 0,-14.05 11.45,-25.49 25.5,-25.49 14.05,0 25.49,11.44 25.49,25.49 0,14.05 -11.44,25.49 -25.49,25.49 z m 0,-60.52 c -19.31,0 -35.03,15.72 -35.03,35.03 0,19.31 15.72,35.03 35.03,35.03 19.31,0 35.02,-15.72 35.02,-35.03 0,-19.31 -15.71,-35.03 -35.02,-35.03"
            style="fill:#78c2ff;fill-opacity:1;fill-rule:nonzero;stroke:none"
            id="path272"/><path
            d="m 1404.04,4271.64 h 221.35 v 221.35 h -221.35 z m 230.89,-9.53 h -240.42 v 240.43 h 240.42 v -240.43"
            style="fill:#a1d4ff;fill-opacity:1;fill-rule:nonzero;stroke:none"
            id="path274"/><path
            d="m 1519.48,4324.94 h -9.53 V 4437 h 9.53 v -112.06"
            style="fill:#a1d4ff;fill-opacity:1;fill-rule:nonzero;stroke:none"
            id="path276"/><path
            d="m 1570.74,4376.2 h -112.05 v 9.54 h 112.05 v -9.54"
            style="fill:#a1d4ff;fill-opacity:1;fill-rule:nonzero;stroke:none"
            id="path278"/><path
            d="m 4964.64,3981.62 h 324.58 v 226.26 h -324.58 z m 334.12,-9.54 h -343.67 v 245.33 h 343.67 v -245.33"
            style="fill:#a1d4ff;fill-opacity:1;fill-rule:nonzero;stroke:none"
            id="path280"/><path
            d="m 5126.93,4068.82 -170.09,140.14 6.07,7.36 164.02,-135.15 164.04,135.15 6.06,-7.36 -170.1,-140.14"
            style="fill:#a1d4ff;fill-opacity:1;fill-rule:nonzero;stroke:none"
            id="path282"/><path
            d="m 5290.54,3973.57 -123.35,130.04 6.93,6.57 123.34,-130.05 -6.92,-6.56"
            style="fill:#a1d4ff;fill-opacity:1;fill-rule:nonzero;stroke:none"
            id="path284"/><path
            d="m 4963.33,3973.57 -6.92,6.56 123.34,130.05 6.92,-6.57 -123.34,-130.04"
            style="fill:#a1d4ff;fill-opacity:1;fill-rule:nonzero;stroke:none"
            id="path286"/><path
            d="m 2237.98,3806.63 c -6.6,0 -13.11,-3.09 -17.22,-8.86 -3.27,-4.59 -4.55,-10.18 -3.62,-15.74 0.94,-5.56 3.99,-10.43 8.58,-13.69 4.59,-3.27 10.17,-4.55 15.74,-3.62 5.55,0.94 10.42,3.99 13.68,8.58 3.27,4.59 4.56,10.18 3.62,15.74 -0.93,5.55 -3.98,10.42 -8.57,13.68 -3.71,2.64 -7.98,3.91 -12.21,3.91 z m -0.09,-49.36 c -5.82,0 -11.49,1.8 -16.32,5.24 -12.7,9.03 -15.68,26.71 -6.64,39.4 9.03,12.7 26.72,15.68 39.4,6.64 6.15,-4.37 10.24,-10.88 11.49,-18.33 1.25,-7.44 -0.47,-14.92 -4.85,-21.07 -4.37,-6.15 -10.88,-10.23 -18.33,-11.48 -1.58,-0.27 -3.17,-0.4 -4.75,-0.4 z m -17.68,-11.89 2.09,-0.8 c 3.79,-1.46 7.77,-2.37 11.86,-2.72 l 2.22,-0.19 3.07,-8.01 14.08,2.37 0.27,8.57 2.05,0.92 c 3.73,1.66 7.19,3.83 10.3,6.44 l 1.72,1.45 7.83,-3.5 8.27,11.63 -5.87,6.25 0.8,2.1 c 1.47,3.78 2.36,7.77 2.73,11.85 l 0.19,2.23 8,3.06 -2.36,14.08 -8.58,0.28 -0.92,2.04 c -1.66,3.72 -3.82,7.19 -6.44,10.31 l -1.45,1.71 3.5,7.82 -11.62,8.28 -6.26,-5.86 -2.09,0.8 c -3.8,1.45 -7.78,2.36 -11.85,2.71 l -2.22,0.2 -3.08,8.01 -14.07,-2.37 -0.28,-8.58 -2.05,-0.91 c -3.73,-1.67 -7.19,-3.83 -10.31,-6.45 l -1.7,-1.44 -7.83,3.49 -8.28,-11.63 5.87,-6.25 -0.81,-2.09 c -1.45,-3.78 -2.37,-7.77 -2.72,-11.85 l -0.19,-2.23 -8.01,-3.07 2.38,-14.07 8.58,-0.28 0.9,-2.04 c 1.66,-3.73 3.84,-7.2 6.46,-10.31 l 1.44,-1.71 -3.49,-7.83 11.62,-8.28 z m 14.65,-19.75 -3.58,9.35 c -3.2,0.42 -6.34,1.14 -9.4,2.15 l -7.3,-6.84 -21.17,15.07 4.09,9.13 c -1.98,2.56 -3.69,5.3 -5.13,8.18 l -10.01,0.32 -4.31,25.63 9.35,3.58 c 0.41,3.21 1.14,6.35 2.16,9.4 l -6.85,7.3 15.07,21.17 9.13,-4.08 c 2.56,1.96 5.29,3.68 8.18,5.12 l 0.32,10.01 25.62,4.31 3.58,-9.34 c 3.2,-0.42 6.36,-1.14 9.41,-2.16 l 7.3,6.85 21.18,-15.07 -4.09,-9.14 c 1.97,-2.55 3.67,-5.29 5.12,-8.18 l 10.01,-0.31 4.31,-25.63 -9.34,-3.58 c -0.43,-3.21 -1.15,-6.36 -2.17,-9.41 l 6.86,-7.29 -15.08,-21.18 -9.13,4.08 c -2.55,-1.96 -5.28,-3.67 -8.17,-5.12 l -0.33,-10 -25.63,-4.32"
            style="fill:#a1d4ff;fill-opacity:1;fill-rule:nonzero;stroke:none"
            id="path288"/><path
            d="m 2041.27,3882.16 c -16.31,0 -32.41,-7.62 -42.56,-21.9 -8.09,-11.36 -11.26,-25.18 -8.95,-38.92 2.32,-13.73 9.84,-25.75 21.19,-33.83 23.44,-16.68 56.08,-11.18 72.76,12.26 8.07,11.34 11.25,25.17 8.94,38.91 -2.32,13.74 -9.84,25.75 -21.2,33.83 -9.16,6.52 -19.72,9.65 -30.18,9.65 z m -0.15,-113.83 c -12.37,0 -24.87,3.71 -35.7,11.41 -27.71,19.73 -34.21,58.33 -14.49,86.05 19.73,27.72 58.32,34.22 86.05,14.49 27.72,-19.72 34.23,-58.33 14.5,-86.04 -12.02,-16.9 -31.06,-25.91 -50.36,-25.91 z m -40.05,-34.98 2.79,-1.06 c 9.06,-3.48 18.58,-5.65 28.28,-6.49 l 2.98,-0.26 7.32,-19.1 38.09,6.42 0.65,20.44 2.72,1.22 c 8.91,3.97 17.19,9.15 24.6,15.39 l 2.29,1.92 18.67,-8.33 22.39,31.48 -13.98,14.9 1.06,2.79 c 3.47,9.05 5.65,18.57 6.49,28.28 l 0.25,2.98 19.11,7.32 -6.43,38.09 -20.44,0.65 -1.22,2.72 c -3.97,8.91 -9.16,17.19 -15.39,24.59 l -1.92,2.29 8.33,18.67 -31.46,22.4 -14.92,-13.99 -2.78,1.07 c -9.06,3.47 -18.57,5.65 -28.28,6.48 l -2.99,0.26 -7.3,19.1 -38.1,-6.41 -0.65,-20.45 -2.73,-1.22 c -8.9,-3.97 -17.18,-9.15 -24.6,-15.39 l -2.28,-1.92 -18.67,8.33 -22.39,-31.47 13.99,-14.91 -1.08,-2.79 c -3.47,-9.05 -5.64,-18.57 -6.48,-28.28 l -0.26,-2.98 -19.1,-7.31 6.42,-38.1 20.45,-0.64 1.21,-2.73 c 3.97,-8.9 9.15,-17.18 15.4,-24.6 l 1.91,-2.29 -8.33,-18.66 31.48,-22.4 z m 35.25,-37.61 -7.99,20.86 c -8.56,0.96 -16.97,2.88 -25.05,5.73 l -16.27,-15.27 -44.21,31.46 9.1,20.38 c -5.34,6.71 -9.92,14.02 -13.63,21.79 l -22.33,0.71 -9.01,53.5 20.86,7.98 c 0.96,8.56 2.89,16.97 5.74,25.06 l -15.27,16.27 31.44,44.2 20.39,-9.1 c 6.71,5.35 14.03,9.92 21.8,13.64 l 0.7,22.32 53.5,9.02 7.99,-20.86 c 8.55,-0.97 16.95,-2.89 25.06,-5.75 l 16.27,15.28 44.19,-31.46 -9.1,-20.37 c 5.35,-6.72 9.92,-14.02 13.65,-21.8 l 22.31,-0.71 9.02,-53.5 -20.86,-7.98 c -0.96,-8.56 -2.89,-16.96 -5.75,-25.06 l 15.29,-16.27 -31.47,-44.2 -20.37,9.1 c -6.71,-5.35 -14.02,-9.92 -21.8,-13.64 l -0.7,-22.32 -53.5,-9.01"
            style="fill:#a1d4ff;fill-opacity:1;fill-rule:nonzero;stroke:none"
            id="path290"/><path
            d="m 788.355,3670.3 c -84.472,0 -153.183,68.73 -153.183,153.2 0,84.47 68.711,153.19 153.183,153.19 84.473,0 153.192,-68.72 153.192,-153.19 h -9.539 c 0,79.21 -64.445,143.65 -143.653,143.65 -79.218,0 -143.652,-64.44 -143.652,-143.65 0,-79.21 64.434,-143.66 143.652,-143.66 z m 0,-24.73 c -98.105,0 -177.929,79.82 -177.929,177.93 h 9.531 c 0,-92.86 75.547,-168.39 168.398,-168.39 92.852,0 168.399,75.53 168.399,168.39 0,92.85 -75.547,168.39 -168.399,168.39 v 9.54 c 98.106,0 177.93,-79.82 177.93,-177.93 0,-98.11 -79.824,-177.93 -177.93,-177.93"
            style="fill:#78c2ff;fill-opacity:1;fill-rule:nonzero;stroke:none"
            id="path292"/><path
            d="m 766.559,3764.55 -64.18,64.18 6.746,6.74 57.434,-57.43 101.035,101.03 6.738,-6.74 -107.773,-107.78"
            style="fill:#78c2ff;fill-opacity:1;fill-rule:nonzero;stroke:none"
            id="path294"/><g
            id="g296"><g
           id="g298"
           clip-path="url(#clipPath302)"><path
             d="M 4545.89,1641.88 H 1842.67 L 1546.85,536.211 H 4841.7 L 4545.89,1641.88"
             style="fill:url(#linearGradient308);fill-opacity:1;fill-rule:nonzero;stroke:none"
             id="path310" /></g></g><path
            d="m 1944.94,1447.9 h 166.08 c 6.94,0 12.18,-5.4 10.88,-11.22 l -16.08,-72.25 c -1,-4.45 -5.57,-7.67 -10.88,-7.67 h -168.93 c -7.09,0 -12.36,5.6 -10.81,11.51 l 18.93,72.24 c 1.12,4.31 5.61,7.39 10.81,7.39"
            style="fill:#ffffff;fill-opacity:1;fill-rule:nonzero;stroke:none"
            id="path312"/><path
            d="m 2187.18,1447.9 h 125.55 l -16.7,-91.14 h -127.95 l 19.1,91.14"
            style="fill:#ffffff;fill-opacity:1;fill-rule:nonzero;stroke:none"
            id="path314"/><path
            d="m 2375.52,1447.9 h 125.55 l -13.13,-91.14 -127.96,-0.13 15.54,91.27"
            style="fill:#ffffff;fill-opacity:1;fill-rule:nonzero;stroke:none"
            id="path316"/><path
            d="m 2563.85,1447.9 h 125.56 l -9.55,-91.14 h -127.95 l 11.94,91.14"
            style="fill:#ffffff;fill-opacity:1;fill-rule:nonzero;stroke:none"
            id="path318"/><path
            d="m 2752.19,1447.9 h 125.56 l -5.98,-91.14 h -127.94 l 8.36,91.14"
            style="fill:#ffffff;fill-opacity:1;fill-rule:nonzero;stroke:none"
            id="path320"/><path
            d="m 2940.52,1447.9 h 125.57 l -2.38,-91.14 -127.96,-0.13 4.77,91.27"
            style="fill:#ffffff;fill-opacity:1;fill-rule:nonzero;stroke:none"
            id="path322"/><path
            d="m 4447.65,1447.9 h -188.34 l 20.29,-91.14 h 191.92 l -23.87,91.14"
            style="fill:#ffffff;fill-opacity:1;fill-rule:nonzero;stroke:none"
            id="path324"/><path
            d="m 4196.53,1447.9 h -125.56 l 16.72,-91.14 h 127.94 l -19.1,91.14"
            style="fill:#ffffff;fill-opacity:1;fill-rule:nonzero;stroke:none"
            id="path326"/><path
            d="m 4008.2,1447.9 h -125.57 l 13.13,-91.14 127.97,-0.13 -15.53,91.27"
            style="fill:#ffffff;fill-opacity:1;fill-rule:nonzero;stroke:none"
            id="path328"/><path
            d="m 3819.86,1447.9 h -125.57 l 9.55,-91.14 h 127.95 l -11.93,91.14"
            style="fill:#ffffff;fill-opacity:1;fill-rule:nonzero;stroke:none"
            id="path330"/><path
            d="m 3631.52,1447.9 h -125.57 l 5.98,-91.14 h 127.94 l -8.35,91.14"
            style="fill:#ffffff;fill-opacity:1;fill-rule:nonzero;stroke:none"
            id="path332"/><path
            d="m 3443.18,1447.9 h -125.57 l 2.4,-91.14 127.95,-0.13 -4.78,91.27"
            style="fill:#ffffff;fill-opacity:1;fill-rule:nonzero;stroke:none"
            id="path334"/><path
            d="m 3128.86,1447.9 h 125.57 l 2.07,-91.14 h -127.64 v 91.14"
            style="fill:#ffffff;fill-opacity:1;fill-rule:nonzero;stroke:none"
            id="path336"/><path
            d="m 1889.69,1288.85 h 262.38 l -14.96,-94.03 h -267.34 l 19.92,94.03"
            style="fill:#ffffff;fill-opacity:1;fill-rule:nonzero;stroke:none"
            id="path338"/><path
            d="m 4488.61,1288.85 h -324.32 l 18.48,-94.03 h 330.47 l -24.63,94.03"
            style="fill:#ffffff;fill-opacity:1;fill-rule:nonzero;stroke:none"
            id="path340"/><path
            d="m 4099.43,1288.85 h -129.72 l 14.78,-94.03 h 132.18 l -17.24,94.03"
            style="fill:#ffffff;fill-opacity:1;fill-rule:nonzero;stroke:none"
            id="path342"/><path
            d="m 3904.85,1288.85 h -129.73 l 11.09,-94.03 h 132.18 l -13.54,94.03"
            style="fill:#ffffff;fill-opacity:1;fill-rule:nonzero;stroke:none"
            id="path344"/><path
            d="m 3710.27,1288.85 h -129.73 l 7.38,-94.03 h 132.19 l -9.84,94.03"
            style="fill:#ffffff;fill-opacity:1;fill-rule:nonzero;stroke:none"
            id="path346"/><path
            d="m 3515.68,1288.85 h -129.73 l 3.69,-94.03 h 132.19 l -6.15,94.03"
            style="fill:#ffffff;fill-opacity:1;fill-rule:nonzero;stroke:none"
            id="path348"/><path
            d="m 1850.5,1121.25 h 268.23 l -19.57,-93.39 h -273.13 l 24.47,93.39"
            style="fill:#ffffff;fill-opacity:1;fill-rule:nonzero;stroke:none"
            id="path350"/><path
            d="m 2185.79,1121.25 h 134.11 l -15.9,-93.39 h -136.56 l 18.35,93.39"
            style="fill:#ffffff;fill-opacity:1;fill-rule:nonzero;stroke:none"
            id="path352"/><path
            d="m 2386.96,1121.25 h 1005.78 l 3.74,-93.39 h -1024.2 l 14.68,93.39"
            style="fill:#ffffff;fill-opacity:1;fill-rule:nonzero;stroke:none"
            id="path354"/><path
            d="m 3459.88,1121.25 h 134.1 l 7.34,-93.39 h -136.56 l -4.88,93.39"
            style="fill:#ffffff;fill-opacity:1;fill-rule:nonzero;stroke:none"
            id="path356"/><path
            d="m 3661.05,1121.25 h 134.11 l 11.01,-93.39 H 3669.6 l -8.55,93.39"
            style="fill:#ffffff;fill-opacity:1;fill-rule:nonzero;stroke:none"
            id="path358"/><path
            d="m 3862.22,1121.25 h 134.1 l 14.69,-93.39 h -136.56 l -12.23,93.39"
            style="fill:#ffffff;fill-opacity:1;fill-rule:nonzero;stroke:none"
            id="path360"/><path
            d="m 4063.39,1121.25 h 134.11 l 18.35,-93.39 h -136.56 l -15.9,93.39"
            style="fill:#ffffff;fill-opacity:1;fill-rule:nonzero;stroke:none"
            id="path362"/><path
            d="m 4264.57,1121.25 h 268.22 l 24.46,-93.39 h -273.11 l -19.57,93.39"
            style="fill:#ffffff;fill-opacity:1;fill-rule:nonzero;stroke:none"
            id="path364"/><path
            d="m 3321.36,1288.85 h -128.67 v -94.03 h 131.14 l -2.47,94.03"
            style="fill:#ffffff;fill-opacity:1;fill-rule:nonzero;stroke:none"
            id="path366"/><path
            d="m 3126.78,1288.85 h -129.72 l -3.71,-94.03 h 132.19 l 1.24,94.03"
            style="fill:#ffffff;fill-opacity:1;fill-rule:nonzero;stroke:none"
            id="path368"/><path
            d="m 2932.19,1288.85 h -129.71 l -7.4,-94.03 h 132.19 l 4.92,94.03"
            style="fill:#ffffff;fill-opacity:1;fill-rule:nonzero;stroke:none"
            id="path370"/><path
            d="m 2737.61,1288.85 h -129.72 l -11.1,-94.03 h 132.2 l 8.62,94.03"
            style="fill:#ffffff;fill-opacity:1;fill-rule:nonzero;stroke:none"
            id="path372"/><path
            d="M 2543.02,1288.85 H 2413.3 l -14.79,-94.03 h 132.19 l 12.32,94.03"
            style="fill:#ffffff;fill-opacity:1;fill-rule:nonzero;stroke:none"
            id="path374"/><path
            d="m 2348.43,1288.85 h -129.72 l -18.47,-94.03 h 132.19 l 16,94.03"
            style="fill:#ffffff;fill-opacity:1;fill-rule:nonzero;stroke:none"
            id="path376"/><path
            d="m 1951.07,1505.18 21.31,81.37 h 60.96 l -19.89,-81.37 h -62.38"
            style="fill:#ffffff;fill-opacity:1;fill-rule:nonzero;stroke:none"
            id="path378"/><path
            d="m 2094.31,1586.55 h 121.92 l -17.06,-81.37 h -124.05 l 19.19,81.37"
            style="fill:#ffffff;fill-opacity:1;fill-rule:nonzero;stroke:none"
            id="path380"/><path
            d="m 2277.2,1586.55 h 121.92 l -13.85,-81.37 h -124.06 l 15.99,81.37"
            style="fill:#ffffff;fill-opacity:1;fill-rule:nonzero;stroke:none"
            id="path382"/><path
            d="m 2460.09,1586.55 h 121.92 l -10.66,-81.37 H 2447.3 l 12.79,81.37"
            style="fill:#ffffff;fill-opacity:1;fill-rule:nonzero;stroke:none"
            id="path384"/><path
            d="m 2642.97,1586.55 h 121.93 l -7.46,-81.37 h -124.06 l 9.59,81.37"
            style="fill:#ffffff;fill-opacity:1;fill-rule:nonzero;stroke:none"
            id="path386"/><path
            d="m 2825.86,1586.55 h 121.93 l -4.26,-81.37 h -124.06 l 6.39,81.37"
            style="fill:#ffffff;fill-opacity:1;fill-rule:nonzero;stroke:none"
            id="path388"/><path
            d="m 3008.75,1586.55 h 121.93 l -1.07,-81.37 h -124.05 l 3.19,81.37"
            style="fill:#ffffff;fill-opacity:1;fill-rule:nonzero;stroke:none"
            id="path390"/><path
            d="m 3191.64,1586.55 h 121.93 l 2.13,-81.37 h -124.06 v 81.37"
            style="fill:#ffffff;fill-opacity:1;fill-rule:nonzero;stroke:none"
            id="path392"/><path
            d="m 3374.53,1586.55 h 121.93 l 5.33,-81.37 h -124.06 l -3.2,81.37"
            style="fill:#ffffff;fill-opacity:1;fill-rule:nonzero;stroke:none"
            id="path394"/><path
            d="m 3557.42,1586.55 h 121.93 l 8.53,-81.37 h -124.06 l -6.4,81.37"
            style="fill:#ffffff;fill-opacity:1;fill-rule:nonzero;stroke:none"
            id="path396"/><path
            d="m 3740.31,1586.55 h 121.93 l 11.72,-81.37 H 3749.9 l -9.59,81.37"
            style="fill:#ffffff;fill-opacity:1;fill-rule:nonzero;stroke:none"
            id="path398"/><path
            d="m 3923.2,1586.55 h 121.93 l 14.92,-81.37 h -124.06 l -12.79,81.37"
            style="fill:#ffffff;fill-opacity:1;fill-rule:nonzero;stroke:none"
            id="path400"/><path
            d="m 4106.09,1586.55 h 121.92 l 18.13,-81.37 h -124.06 l -15.99,81.37"
            style="fill:#ffffff;fill-opacity:1;fill-rule:nonzero;stroke:none"
            id="path402"/><path
            d="m 4288.98,1586.55 h 121.92 l 21.32,-81.37 h -124.06 l -19.18,81.37"
            style="fill:#ffffff;fill-opacity:1;fill-rule:nonzero;stroke:none"
            id="path404"/><g
            id="g406"><g
           id="g408"
           clip-path="url(#clipPath412)"><path
             d="m 4755.62,450.129 h -3122.7 c -47.53,0 -86.07,38.543 -86.07,86.082 H 4841.7 c 0,-47.539 -38.54,-86.082 -86.08,-86.082"
             style="fill:url(#linearGradient418);fill-opacity:1;fill-rule:nonzero;stroke:none"
             id="path420" /></g></g><path
            d="m 3577.3,893.5 c -3.22,19.469 -20.05,33.738 -39.79,33.738 h -343.24 -343.24 c -19.73,0 -36.55,-14.269 -39.77,-33.738 l -42.89,-259.531 c -4.06,-24.559 14.89,-46.879 39.77,-46.879 h 386.13 386.14 c 24.89,0 43.83,22.32 39.78,46.879 L 3577.3,893.5"
            style="fill:#4d78eb;fill-opacity:1;fill-rule:nonzero;stroke:none"
            id="path422"/><path
            d="m 2386.11,3098.3 h -279.44 v 28.61 h 279.44 v -28.61"
            style="fill:#e0e0e0;fill-opacity:1;fill-rule:nonzero;stroke:none"
            id="path424"/><path
            d="m 2666.06,2882.87 h -201.75 v 28.6 h 201.75 v -28.6"
            style="fill:#e0e0e0;fill-opacity:1;fill-rule:nonzero;stroke:none"
            id="path426"/><path
            d="m 2831.36,2882.87 h -133.87 v 28.6 h 133.87 v -28.6"
            style="fill:#1487e3;fill-opacity:1;fill-rule:nonzero;stroke:none"
            id="path428"/><path
            d="m 2243.73,2341.08 h -133.88 v 28.62 h 133.88 v -28.62"
            style="fill:#1487e3;fill-opacity:1;fill-rule:nonzero;stroke:none"
            id="path430"/><path
            d="m 3181.07,2882.87 h -323.24 v 28.6 h 323.24 v -28.6"
            style="fill:#e0e0e0;fill-opacity:1;fill-rule:nonzero;stroke:none"
            id="path432"/><path
            d="m 2317.55,2449.6 h -207.7 v 28.61 h 207.7 v -28.61"
            style="fill:#e0e0e0;fill-opacity:1;fill-rule:nonzero;stroke:none"
            id="path434"/><path
            d="m 2526.19,2233.37 h -126.8 v 28.6 h 126.8 v -28.6"
            style="fill:#e0e0e0;fill-opacity:1;fill-rule:nonzero;stroke:none"
            id="path436"/><path
            d="m 2361.07,2233.37 h -251.22 v 28.6 h 251.22 v -28.6"
            style="fill:#1487e3;fill-opacity:1;fill-rule:nonzero;stroke:none"
            id="path438"/><path
            d="m 2248.41,2125.64 h -138.56 v 28.62 h 138.56 v -28.62"
            style="fill:#e0e0e0;fill-opacity:1;fill-rule:nonzero;stroke:none"
            id="path440"/><path
            d="m 2638.83,3098.3 h -198.37 v 28.61 h 198.37 v -28.61"
            style="fill:#78c2ff;fill-opacity:1;fill-rule:nonzero;stroke:none"
            id="path442"/><path
            d="m 2638.83,2775.14 h -198.37 v 28.61 h 198.37 v -28.61"
            style="fill:#1487e3;fill-opacity:1;fill-rule:nonzero;stroke:none"
            id="path444"/><path
            d="m 2426.04,2667.42 h -84.76 v 28.62 h 84.76 v -28.62"
            style="fill:#e0e0e0;fill-opacity:1;fill-rule:nonzero;stroke:none"
            id="path446"/><path
            d="m 2446.91,2558.12 h -190.38 v 28.6 h 190.38 v -28.6"
            style="fill:#78c2ff;fill-opacity:1;fill-rule:nonzero;stroke:none"
            id="path448"/><path
            d="m 2738.49,2558.12 h -262.81 v 28.6 h 262.81 v -28.6"
            style="fill:#1487e3;fill-opacity:1;fill-rule:nonzero;stroke:none"
            id="path450"/><path
            d="m 2308.22,2666.63 h -198.37 v 28.61 h 198.37 v -28.61"
            style="fill:#1487e3;fill-opacity:1;fill-rule:nonzero;stroke:none"
            id="path452"/><path
            d="m 2227.55,2558.12 h -117.7 v 28.6 h 117.7 v -28.6"
            style="fill:#1487e3;fill-opacity:1;fill-rule:nonzero;stroke:none"
            id="path454"/><path
            d="M 2577.05,2666.63 H 2466 v 28.61 h 111.05 v -28.61"
            style="fill:#ff8761;fill-opacity:1;fill-rule:nonzero;stroke:none"
            id="path456"/><path
            d="m 2224.21,2017.93 h -111.03 v 28.6 h 111.03 v -28.6"
            style="fill:#ff8761;fill-opacity:1;fill-rule:nonzero;stroke:none"
            id="path458"/><path
            d="m 2307.42,2882.87 h -198.36 v 28.6 h 198.36 v -28.6"
            style="fill:#78c2ff;fill-opacity:1;fill-rule:nonzero;stroke:none"
            id="path460"/><path
            d="m 2482.85,2341.08 h -198.37 v 28.62 h 198.37 v -28.62"
            style="fill:#78c2ff;fill-opacity:1;fill-rule:nonzero;stroke:none"
            id="path462"/><path
            d="m 2485.29,2125.64 h -198.36 v 28.62 h 198.36 v -28.62"
            style="fill:#78c2ff;fill-opacity:1;fill-rule:nonzero;stroke:none"
            id="path464"/><path
            d="m 2837.67,2125.64 h -198.36 v 28.62 h 198.36 v -28.62"
            style="fill:#78c2ff;fill-opacity:1;fill-rule:nonzero;stroke:none"
            id="path466"/><path
            d="m 2391.83,2775.14 h -282.77 v 28.61 h 282.77 v -28.61"
            style="fill:#78c2ff;fill-opacity:1;fill-rule:nonzero;stroke:none"
            id="path468"/><path
            d="m 3632.5,3098.3 h -198.36 v 28.61 h 198.36 v -28.61"
            style="fill:#78c2ff;fill-opacity:1;fill-rule:nonzero;stroke:none"
            id="path470"/><path
            d="m 2925.84,2017.93 h -198.36 v 28.6 h 198.36 v -28.6"
            style="fill:#78c2ff;fill-opacity:1;fill-rule:nonzero;stroke:none"
            id="path472"/><path
            d="m 3827.01,3098.3 h -132.8 v 28.61 h 132.8 v -28.61"
            style="fill:#78c2ff;fill-opacity:1;fill-rule:nonzero;stroke:none"
            id="path474"/><path
            d="m 4276.25,2990.59 h -132.78 v 28.6 h 132.78 v -28.6"
            style="fill:#78c2ff;fill-opacity:1;fill-rule:nonzero;stroke:none"
            id="path476"/><path
            d="m 2944.98,3098.3 h -252.74 v 28.61 h 252.74 v -28.61"
            style="fill:#1487e3;fill-opacity:1;fill-rule:nonzero;stroke:none"
            id="path478"/><path
            d="m 3929.67,2990.59 h -252.72 v 28.6 h 252.72 v -28.6"
            style="fill:#1487e3;fill-opacity:1;fill-rule:nonzero;stroke:none"
            id="path480"/><path
            d="m 3619.72,2882.87 h -252.73 v 28.6 h 252.73 v -28.6"
            style="fill:#1487e3;fill-opacity:1;fill-rule:nonzero;stroke:none"
            id="path482"/><path
            d="m 3290.68,2775.14 h -252.73 v 28.61 h 252.73 v -28.61"
            style="fill:#1487e3;fill-opacity:1;fill-rule:nonzero;stroke:none"
            id="path484"/><path
            d="m 3831.18,2882.87 h -179.66 v 28.6 h 179.66 v -28.6"
            style="fill:#78c2ff;fill-opacity:1;fill-rule:nonzero;stroke:none"
            id="path486"/><path
            d="m 3384.61,3098.3 h -252.72 v 28.61 h 252.72 v -28.61"
            style="fill:#ff8761;fill-opacity:1;fill-rule:nonzero;stroke:none"
            id="path488"/><path
            d="m 2991.69,2775.14 h -148.18 v 28.61 h 148.18 v -28.61"
            style="fill:#ff8761;fill-opacity:1;fill-rule:nonzero;stroke:none"
            id="path490"/><path
            d="m 2875.66,2339.49 h -148.18 v 28.62 h 148.18 v -28.62"
            style="fill:#ff8761;fill-opacity:1;fill-rule:nonzero;stroke:none"
            id="path492"/><path
            d="m 3084.21,3098.3 h -92.52 v 28.61 h 92.52 v -28.61"
            style="fill:#e0e0e0;fill-opacity:1;fill-rule:nonzero;stroke:none"
            id="path494"/><path
            d="m 2784.74,2775.14 h -92.5 v 28.61 h 92.5 v -28.61"
            style="fill:#e0e0e0;fill-opacity:1;fill-rule:nonzero;stroke:none"
            id="path496"/><path
            d="m 4083.14,2990.59 h -92.52 v 28.6 h 92.52 v -28.6"
            style="fill:#e0e0e0;fill-opacity:1;fill-rule:nonzero;stroke:none"
            id="path498"/><path
            d="m 2251.4,2990.59 h -144.73 v 28.6 h 144.73 v -28.6"
            style="fill:#1487e3;fill-opacity:1;fill-rule:nonzero;stroke:none"
            id="path500"/><path
            d="m 2607.08,2448.81 h -114.25 v 28.61 h 114.25 v -28.61"
            style="fill:#1487e3;fill-opacity:1;fill-rule:nonzero;stroke:none"
            id="path502"/><path
            d="m 2333.65,2990.59 h -46.72 v 28.6 h 46.72 v -28.6"
            style="fill:#1487e3;fill-opacity:1;fill-rule:nonzero;stroke:none"
            id="path504"/><path
            d="m 3632.5,2990.59 h -386.25 v 28.6 h 386.25 v -28.6"
            style="fill:#e0e0e0;fill-opacity:1;fill-rule:nonzero;stroke:none"
            id="path506"/><path
            d="m 3261.91,2125.64 h -386.25 v 28.62 h 386.25 v -28.62"
            style="fill:#e0e0e0;fill-opacity:1;fill-rule:nonzero;stroke:none"
            id="path508"/><path
            d="m 2415.67,2990.59 h -47.68 v 28.6 h 47.68 v -28.6"
            style="fill:#ff8761;fill-opacity:1;fill-rule:nonzero;stroke:none"
            id="path510"/><path
            d="m 3210.57,2990.59 h -126.36 v 28.6 h 126.36 v -28.6"
            style="fill:#1487e3;fill-opacity:1;fill-rule:nonzero;stroke:none"
            id="path512"/><path
            d="m 3336.94,2882.87 h -126.37 v 28.6 h 126.37 v -28.6"
            style="fill:#ff8761;fill-opacity:1;fill-rule:nonzero;stroke:none"
            id="path514"/><path
            d="M 2687.16,2017.93 H 2560.8 v 28.6 h 126.36 v -28.6"
            style="fill:#ff8761;fill-opacity:1;fill-rule:nonzero;stroke:none"
            id="path516"/><path
            d="m 3050.76,2990.59 h -268.87 v 28.6 h 268.87 v -28.6"
            style="fill:#1487e3;fill-opacity:1;fill-rule:nonzero;stroke:none"
            id="path518"/><path
            d="m 2688.71,2339.49 h -157.08 v 28.62 h 157.08 v -28.62"
            style="fill:#1487e3;fill-opacity:1;fill-rule:nonzero;stroke:none"
            id="path520"/><path
            d="m 2600.07,2125.64 h -78.55 v 28.62 h 78.55 v -28.62"
            style="fill:#1487e3;fill-opacity:1;fill-rule:nonzero;stroke:none"
            id="path522"/><path
            d="m 2743.75,2990.59 h -92.52 v 28.6 h 92.52 v -28.6"
            style="fill:#78c2ff;fill-opacity:1;fill-rule:nonzero;stroke:none"
            id="path524"/><path
            d="m 2432.36,2882.87 h -92.5 v 28.6 h 92.5 v -28.6"
            style="fill:#ff8761;fill-opacity:1;fill-rule:nonzero;stroke:none"
            id="path526"/><path
            d="m 2450.8,2448.81 h -92.5 v 28.61 h 92.5 v -28.61"
            style="fill:#ff8761;fill-opacity:1;fill-rule:nonzero;stroke:none"
            id="path528"/><path
            d="m 2615.95,2990.59 h -161.18 v 28.6 h 161.18 v -28.6"
            style="fill:#1487e3;fill-opacity:1;fill-rule:nonzero;stroke:none"
            id="path530"/><g
            id="g532"><g
           id="g534"
           clip-path="url(#clipPath538)"><path
             d="m 4546,1877.4 h 309.859 v 890.551 H 4546 Z"
             style="fill:#fdfdfd;fill-opacity:1;fill-rule:nonzero;stroke:none"
             id="path540" /></g></g><g
            id="g542"><g
           id="g544"
           clip-path="url(#clipPath548)"><path
             d="m 4445.62,1877.4 h 100.379 v 890.551 H 4445.62 Z"
             style="fill:url(#linearGradient554);fill-opacity:1;fill-rule:nonzero;stroke:none"
             id="path556" /></g></g><g
            id="g558"><g
           id="g560"
           clip-path="url(#clipPath564)"><path
             d="m 4445.62,1877.4 h -799.68 c -22.17,0 -40.14,17.98 -40.14,40.15 v 810.26 c 0,22.17 17.97,40.14 40.14,40.14 h 799.68 V 1877.4"
             style="fill:url(#linearGradient572);fill-opacity:1;fill-rule:nonzero;stroke:none"
             id="path574" /></g></g><g
            id="g576"><g
           id="g578"
           clip-path="url(#clipPath582)"><path
             d="m 4832.02,1881.29 c 23.84,85.85 -9.82,148.23 -15.74,207.53 -3.88,38.76 15.7,59.89 38.65,64.18 v -235.45 c 0,-16 -9.36,-29.81 -22.91,-36.26"
             style="fill:url(#linearGradient588);fill-opacity:1;fill-rule:nonzero;stroke:none"
             id="path590" /></g></g><path
            d="m 4632.63,2525.83 h 222.301 v 9.543 H 4632.63 Z"
            style="fill:#dff0ff;fill-opacity:1;fill-rule:nonzero;stroke:none"
            id="path592"/><path
            d="m 4720.03,2247.75 h -201.25 c -8.51,0 -15.41,6.9 -15.41,15.39 v 31.09 c 0,8.5 6.9,15.4 15.41,15.4 h 201.25 c 8.52,0 15.41,-6.9 15.41,-15.4 v -31.09 c 0,-8.49 -6.89,-15.39 -15.41,-15.39"
            style="fill:#4aafff;fill-opacity:1;fill-rule:nonzero;stroke:none"
            id="path594"/><path
            d="m 4720.03,2131.89 h -201.25 c -8.51,0 -15.41,6.89 -15.41,15.4 v 31.08 c 0,8.5 6.9,15.4 15.41,15.4 h 201.25 c 8.52,0 15.41,-6.9 15.41,-15.4 v -31.08 c 0,-8.51 -6.89,-15.4 -15.41,-15.4"
            style="fill:#4aafff;fill-opacity:1;fill-rule:nonzero;stroke:none"
            id="path596"/><path
            d="m 4720.03,2016.03 h -201.25 c -8.51,0 -15.41,6.89 -15.41,15.4 v 31.07 c 0,8.52 6.9,15.41 15.41,15.41 h 201.25 c 8.52,0 15.41,-6.89 15.41,-15.41 v -31.07 c 0,-8.51 -6.89,-15.4 -15.41,-15.4"
            style="fill:#4aafff;fill-opacity:1;fill-rule:nonzero;stroke:none"
            id="path598"/><path
            d="m 4153.59,2088.15 c -104.13,-37.24 -216.37,-3.63 -284.01,75.89 -16.13,18.95 -29.72,40.51 -40.06,64.36 -2.29,5.25 -4.42,10.64 -6.38,16.11 -19.68,55.03 -19.57,112.33 -3.36,164.08 23.39,74.73 80.31,137.98 159.71,166.36 26.21,9.38 52.93,14.25 79.31,15.06 109,3.29 212.43,-63.18 251.14,-171.4 48.08,-134.43 -21.93,-282.38 -156.35,-330.46 z m 237.59,359.51 c -51.62,144.34 -189.56,232.98 -334.95,228.61 -35.2,-1.06 -70.82,-7.56 -105.79,-20.06 -105.89,-37.89 -181.83,-122.24 -213.03,-221.89 -21.62,-69.07 -21.76,-145.47 4.49,-218.87 2.61,-7.31 5.44,-14.47 8.49,-21.49 13.8,-31.79 31.93,-60.55 53.44,-85.83 90.23,-106.07 239.93,-150.89 378.82,-101.24 179.3,64.15 272.66,261.47 208.53,440.77"
            style="fill:#4aafff;fill-opacity:1;fill-rule:nonzero;stroke:none"
            id="path600"/><path
            d="m 3819.78,2408.59 -82.37,25.73 c 31.2,99.65 107.14,184 213.03,221.89 34.97,12.5 70.59,19 105.79,20.06 l 2.57,-86.26 c -26.38,-0.81 -53.1,-5.68 -79.31,-15.06 -79.4,-28.38 -136.32,-91.63 -159.71,-166.36"
            style="fill:#1a598c;fill-opacity:1;fill-rule:nonzero;stroke:none"
            id="path602"/><path
            d="m 3829.52,2228.4 -79.13,-34.44 c -3.05,7.02 -5.88,14.18 -8.49,21.49 -26.25,73.4 -26.11,149.8 -4.49,218.87 l 82.37,-25.73 c -16.21,-51.75 -16.32,-109.05 3.36,-164.08 1.96,-5.47 4.09,-10.86 6.38,-16.11"
            style="fill:#2273b5;fill-opacity:1;fill-rule:nonzero;stroke:none"
            id="path604"/><path
            d="m 3803.83,2108.13 c -21.51,25.28 -39.64,54.04 -53.44,85.83 l 79.13,34.44 c 10.34,-23.85 23.93,-45.41 40.06,-64.36 l -65.75,-55.91"
            style="fill:#3788cc;fill-opacity:1;fill-rule:nonzero;stroke:none"
            id="path606"/><path
            d="m 4181.64,2127.06 c 0,0 -16.7,29.23 9.78,107.56 25.61,75.75 114.29,68.89 142.46,20.35 28.19,-48.52 18.67,-78.68 -22.82,-133.47 -41.49,-54.8 -112.21,-19.49 -129.42,5.56"
            style="fill:#eea886;fill-opacity:1;fill-rule:nonzero;stroke:none"
            id="path608"/><path
            d="m 4387.59,779.43 c 0,0 4.39,-32.16 4.94,-37.008 0.54,-4.82 48.81,2.848 48.81,2.848 l 3.91,38.3 c 0,0 -51.62,0.391 -57.66,-4.14"
            style="fill:#eea886;fill-opacity:1;fill-rule:nonzero;stroke:none"
            id="path610"/><path
            d="m 4392.01,746.512 c 0,0 -15.3,-19.383 -30.08,-27.821 -14.79,-8.461 -38.03,-11.8 -46.78,-20.55 -6.31,-6.301 -22.99,-33.493 38.44,-32.93 61.42,0.531 91.03,-3.852 97.62,6.57 6.58,10.43 -9.52,76.91 -9.52,76.91 0,0 -15.03,-4.242 -49.68,-2.179"
            style="fill:#414773;fill-opacity:1;fill-rule:nonzero;stroke:none"
            id="path612"/><path
            d="m 4053.41,779.43 c 0,0 4.4,-32.16 4.94,-37.008 0.55,-4.82 48.81,2.848 48.81,2.848 l 3.91,38.3 c 0,0 -51.62,0.391 -57.66,-4.14"
            style="fill:#eea886;fill-opacity:1;fill-rule:nonzero;stroke:none"
            id="path614"/><path
            d="m 4057.85,746.512 c 0,0 -15.3,-19.383 -30.09,-27.821 -14.79,-8.461 -69.22,-15.39 -77.96,-24.14 -6.32,-6.321 -16.82,-31.731 69.61,-29.34 61.41,1.68 91.04,-3.852 97.63,6.57 6.58,10.43 -9.53,76.91 -9.53,76.91 0,0 -19.08,-3.39 -49.66,-2.179"
            style="fill:#414773;fill-opacity:1;fill-rule:nonzero;stroke:none"
            id="path616"/><path
            d="m 4371.34,1580.41 c 0,0 24.75,-76.89 21.49,-143.16 -3.26,-66.27 12.79,-138.79 19.35,-208.02 7.33,-77.17 37.27,-259.871 38.34,-301.16 1.1,-41.269 -4.64,-173.109 -4.64,-173.109 l -59.94,-1.43 c 0,0 -50.33,319.399 -63.37,351.989 -13.03,32.59 -77.69,264.94 -79.86,291.01 -2.17,26.08 128.63,183.88 128.63,183.88"
            style="fill:#2d314f;fill-opacity:1;fill-rule:nonzero;stroke:none"
            id="path618"/><path
            d="m 4122.85,1588.42 c 0,0 -36.39,-203.32 -40.75,-243.89 -4.33,-40.56 -7.24,-196.28 -9.41,-221.63 -2.17,-25.34 -14.48,-331.72 -26.07,-369.369 h 66.83 c 0,0 68.62,222.707 68.62,328.089 0,105.38 45.43,229.09 74.76,298.61 29.34,69.54 96.48,71.18 114.51,200.18 0,0 -224.09,48.92 -248.49,8.01"
            style="fill:#2d314f;fill-opacity:1;fill-rule:nonzero;stroke:none"
            id="path620"/><path
            d="m 4205.87,2106.39 c 0,0 7.54,-21.95 0,-37.61 -7.54,-15.65 96.31,-6.26 96.31,-6.26 0,0 -4.69,32.36 8.88,58.98 13.56,26.62 -105.19,-15.11 -105.19,-15.11"
            style="fill:#eea886;fill-opacity:1;fill-rule:nonzero;stroke:none"
            id="path622"/><path
            d="m 4376.16,1563.65 c 0,0 -37.36,-38.37 -256.66,5.98 l 3.35,18.79 249.3,-9.4 4.01,-15.37"
            style="fill:#2b3b57;fill-opacity:1;fill-rule:nonzero;stroke:none"
            id="path624"/><path
            d="m 4190.15,2063.7 c 0,0 -38.36,-3.91 -49.32,-6 -10.95,-2.08 -84.72,13.2 -99.86,14.76 -15.14,1.56 -79.67,45.77 -81.76,51 -2.08,5.21 -39.25,99.33 -41.34,119.68 -2.09,20.38 -36.21,9.86 -33.29,-4.17 5.47,-26.24 12.5,-89.92 16.36,-108.38 4.16,-19.94 15.31,-65.07 21.57,-70.63 6.26,-5.56 64.37,-49.75 121.25,-68.53 56.9,-18.79 99.71,-46.46 99.71,-46.46 h 280.35 c 0,0 109.05,155.87 111.39,179.36 2.34,23.48 -76.16,179.57 -91.82,199.15 -15.66,19.57 -38.3,-6.39 -38.3,-6.39 0,0 46.92,-137.66 53.17,-157.23 6.27,-19.57 -54.56,-105.55 -71.27,-105.82 -16.7,-0.26 -59.57,5.23 -78.63,6.01 -19.05,0.79 -39.15,9.14 -39.15,9.14 l -79.06,-5.49"
            style="fill:#eea886;fill-opacity:1;fill-rule:nonzero;stroke:none"
            id="path626"/><path
            d="m 4069.33,1959.59 c 0,0 34.33,-22.82 37.46,-61.95 3.13,-39.15 15.66,-100.99 21.92,-122.12 6.27,-21.15 -5.48,-174.57 -7.05,-185.53 -1.57,-10.97 216.94,-37 250.49,-10.97 0,0 9.4,143.27 13.31,183.97 3.92,40.7 22.7,139.33 28.97,152.64 6.26,13.32 82.19,119.82 85.32,133.86 0,0 -39.29,62.63 -67.46,63.41 0,0 -44.76,-52.45 -59.35,-54.79 -14.6,-2.35 -104.04,14.04 -104.06,14.18 0,0 -9.76,-13.31 -61.66,2.36 0,0 -61.81,-6.97 -71.86,-8.25 -12.18,-1.57 -96.81,10.61 -96.81,10.61 0,0 -33.96,-57.34 -28.01,-86.28 l 58.79,-31.14"
            style="fill:#ffc655;fill-opacity:1;fill-rule:nonzero;stroke:none"
            id="path628"/><path
            d="m 3919.83,2230.92 c 0,0 -7.67,36.28 1.57,46.7 5.26,5.92 17.87,21.63 19.02,23.93 1.16,2.31 14.71,10.1 14.71,13.85 0,3.75 -13.26,8.36 -24.79,-2.31 -11.54,-10.67 -18.74,-12.98 -23.35,-11.82 -4.63,1.15 -11.25,39.5 -11.83,49.01 -0.58,9.52 -4.25,34.61 -10.2,32.87 -5.95,-1.72 -5.66,-12.68 -5.66,-12.68 0,0 -6.92,19.04 -11.53,15.28 -4.62,-3.74 -4.04,-12.98 -4.04,-12.98 0,0 -8.66,10.68 -10.96,2.89 -2.31,-7.79 0,-14.7 0,-14.7 0,0 -8.95,4.9 -9.51,-7.21 -0.59,-12.11 2.59,-47.58 8.93,-60.27 6.34,-12.69 30.09,-45.87 32.92,-58.83 2.83,-12.97 34.72,-3.73 34.72,-3.73"
            style="fill:#eea886;fill-opacity:1;fill-rule:nonzero;stroke:none"
            id="path630"/><path
            d="m 4412.73,2294.63 c 0,0 -26.08,43.85 -34.96,47.76 -8.87,3.92 -21.39,6.14 -32.35,13.97 -10.96,7.82 -25.44,14.34 -24.66,16.95 0.78,2.61 13.7,1.57 27.53,-4.43 13.83,-6 19.89,-3.1 21.2,0.03 1.31,3.13 -7.37,25.24 -11.55,30.46 -4.18,5.22 -33.92,35.14 -28.96,39.58 4.96,4.43 24.27,-12.02 27.4,-15.4 0,0 -15.4,32.35 -9.39,33.92 5.99,1.57 17.21,-9.91 17.21,-9.91 0,0 -1.29,27.65 28.45,-17.23 0,0 -6.27,14.88 2.87,9.91 9.13,-4.95 18.01,-32.88 20.88,-46.97 2.86,-14.08 15.89,-58.97 26.99,-69.79 11.1,-10.83 -30.66,-28.85 -30.66,-28.85"
            style="fill:#eea886;fill-opacity:1;fill-rule:nonzero;stroke:none"
            id="path632"/><path
            d="m 4311.06,2121.5 c 0,0 -13.74,-1.22 -42.97,8.87 -29.23,10.1 -31.41,61.19 -37.72,55.15 -12.9,-12.36 -25.08,-3.83 -29.95,3.48 0,0 14.26,18.78 7.65,27.84 -6.61,9.04 -17.37,15.64 -17.37,15.64 0,0 20.55,99.07 114.1,53.94 109.59,-52.89 6.26,-164.92 6.26,-164.92"
            style="fill:#353a3d;fill-opacity:1;fill-rule:nonzero;stroke:none"
            id="path634"/><path
            d="m 4205.87,2068.78 3.3,14.33 c 0,0 59.7,1.21 92.27,-3.51 l 3.44,-17.12 c 0,0 -41.72,-18.92 -99.01,6.3"
            style="fill:#d4d8e8;fill-opacity:1;fill-rule:nonzero;stroke:none"
            id="path636"/><path
            d="m 4220.6,2198.05 c 5.42,9 25.47,15.08 27.83,-10.44 1.83,-19.8 -35.84,-41.41 -36.19,-22.97 -0.34,18.45 4.75,27.41 8.36,33.41"
            style="fill:#eea886;fill-opacity:1;fill-rule:nonzero;stroke:none"
            id="path638"/><path
            d="m 3918.41,2239.15 c 0,0 -21.54,-0.52 -31.99,-9.96 0,0 -0.68,-6 1.74,-10.71 0,0 18.67,8.71 33,10.34 0,0 -0.25,7.83 -2.75,10.33"
            style="fill:#e55353;fill-opacity:1;fill-rule:nonzero;stroke:none"
            id="path640"/><path
            d="m 3893.01,2233.79 c -1.98,-4.71 0.23,-10.15 4.93,-12.14 4.71,-1.98 10.15,0.22 12.14,4.93 1.99,4.72 -0.21,10.15 -4.93,12.14 -4.71,1.99 -10.15,-0.22 -12.14,-4.93"
            style="fill:#353a3d;fill-opacity:1;fill-rule:nonzero;stroke:none"
            id="path642"/><path
            d="m 3363.88,2999.37 c 0,0 30.79,-52.2 43.79,-60.73 17.66,-11.57 6.59,-23.27 -1.79,-23.28 -8.38,-0.01 -51.18,-3.07 -60.61,7.63 -9.44,10.7 -14.1,42.78 -22.88,51.17 -8.77,8.38 -17.82,41.73 4.27,49.83 19.55,7.18 37.22,-24.62 37.22,-24.62"
            style="fill:#6069a8;fill-opacity:1;fill-rule:nonzero;stroke:none"
            id="path644"/><path
            d="m 3350.55,3022.32 c 0,0 35.27,-61.12 41.34,-70.16 6.07,-9.03 -11.45,-9.01 -22.31,-4.72 -10.85,4.29 -38.16,48.13 -42.08,56.11 -4.68,9.53 -0.84,20.44 -0.84,20.44 l 23.89,-1.67"
            style="fill:#202338;fill-opacity:1;fill-rule:nonzero;stroke:none"
            id="path646"/><path
            d="m 3314.82,2989.43 8.14,-62.66 4.32,-0.19 -1.35,45.08 -11.11,17.77"
            style="fill:#6069a8;fill-opacity:1;fill-rule:nonzero;stroke:none"
            id="path648"/><path
            d="m 3058.53,2999.37 c 0,0 30.8,-52.2 43.79,-60.73 17.66,-11.57 6.6,-23.27 -1.78,-23.28 -8.38,-0.01 -51.19,-3.07 -60.61,7.63 -9.44,10.7 -14.11,42.78 -22.88,51.17 -8.77,8.38 -18.13,42.59 4.26,49.83 19.65,6.36 37.22,-24.62 37.22,-24.62"
            style="fill:#6069a8;fill-opacity:1;fill-rule:nonzero;stroke:none"
            id="path650"/><path
            d="m 3047.05,3022.2 c 0,0 33.41,-61 39.5,-70.04 6.07,-9.03 -11.46,-9.01 -22.31,-4.72 -10.86,4.29 -38.17,48.13 -42.09,56.11 -4.67,9.53 -0.84,20.44 -0.84,20.44 l 25.74,-1.79"
            style="fill:#202338;fill-opacity:1;fill-rule:nonzero;stroke:none"
            id="path652"/><path
            d="m 3009.47,2989.43 8.14,-62.66 4.32,-0.19 -1.34,45.08 -11.12,17.77"
            style="fill:#6069a8;fill-opacity:1;fill-rule:nonzero;stroke:none"
            id="path654"/><path
            d="m 2921.92,3474.41 278.64,-126.96 c 0,0 31.1,-10.12 34.59,-44.65 10.88,-107.8 91.51,-278.81 91.51,-278.81 25.87,-12.64 23.89,-1.67 23.89,-1.67 -16.3,52.34 -36.15,268.04 -43.23,354.76 -1.5,18.37 -2.43,30.95 -2.64,34.97 -0.13,2.74 -3.12,6.31 -8.28,10.49 -38.24,31.01 -195.57,95.2 -195.57,95.2 -118.12,3 -178.91,-43.33 -178.91,-43.33"
            style="fill:#202338;fill-opacity:1;fill-rule:nonzero;stroke:none"
            id="path656"/><path
            d="m 2869.4,3419.89 c 8.62,-75.31 116.14,-66.69 116.14,-66.69 h 130.3 c 0,0 -34.22,-76.16 -47.45,-140.4 -14.02,-68.18 -47.08,-188.81 -47.08,-188.81 0,0 2.16,-4.09 25.74,-1.79 0,0 102.28,203.85 141.44,255.1 8.42,11.03 32.56,70.9 36.72,106.61 1.41,12.01 0.54,21.29 -3.95,25.05 -4.53,3.79 -14.91,10.93 -28.76,19.67 -40.83,25.74 -111.7,65.36 -151.2,74.23 -52.89,11.89 -136.54,34.17 -136.54,34.17 0,0 -43.98,-41.83 -35.36,-117.14"
            style="fill:#202338;fill-opacity:1;fill-rule:nonzero;stroke:none"
            id="path658"/><path
            d="m 2958.08,4000.02 c 0,0 -19.5,37.03 -10,76.46 9.51,39.43 46.09,78.72 99.67,60.67 53.57,-18.04 96.87,-59.65 64.76,-107.77 -32.11,-48.12 29.07,-69.85 13.47,-92.75 -15.58,-22.9 -9.68,-46.81 -3.07,-52.14 6.6,-5.32 27.89,-24.31 25.54,-46.8 -2.34,-22.48 -103.93,65.53 -103.93,65.53 0,0 -55.34,111.17 -86.44,96.8"
            style="fill:#464240;fill-opacity:1;fill-rule:nonzero;stroke:none"
            id="path660"/><path
            d="m 3121.36,3526.77 c 0,0 -8.06,-39.2 -216.17,10.3 0,0 69.76,23.17 216.17,-10.3"
            style="fill:#eb4747;fill-opacity:1;fill-rule:nonzero;stroke:none"
            id="path662"/><path
            d="m 2902.83,3526.07 c -3.24,-6.16 -6.46,-12.32 -9.68,-18.48 76.07,-2.21 152.15,-4.43 228.21,-6.65 -12.02,40.3 -8.12,94.86 -6.01,136.28 2.57,50.59 30.5,85.76 27.54,136.93 15.04,-2.44 17.64,-2.9 32.72,-5.2 -23.06,65.67 -30.95,98.21 -102.55,123.49 -23.32,8.23 -38.63,9.86 -63.87,7.78 -82.93,-6.83 -107.94,-7.81 -148.67,-82.96 63.76,-10.16 53.26,-33.05 72.6,-96.48 9.43,-30.93 19.28,-65.45 14.22,-98.07 -4.98,-32.12 -44.51,-67.35 -44.51,-96.64"
            style="fill:#325bb3;fill-opacity:1;fill-rule:nonzero;stroke:none"
            id="path664"/><path
            d="m 3035.17,3876.52 c -33.94,6.41 -26.72,25.29 -26.72,25.29 0,0 1.57,10.65 2.19,24.12 0.16,3.44 0.24,7.08 0.22,10.77 -0.01,5.59 -0.28,11.31 -0.92,16.69 -2.79,22.78 61.6,9.19 61.6,9.19 0,0 -3.71,-46.1 5.17,-59.91 8.87,-13.82 -7.59,-32.56 -41.54,-26.15"
            style="fill:#eea886;fill-opacity:1;fill-rule:nonzero;stroke:none"
            id="path666"/><path
            d="m 2970.42,3901.93 c 0,0 68.46,-79.05 93.77,-97.37 0,0 29.08,26.27 11.16,95.65 0,0 -33.06,16.56 -104.93,1.72"
            style="fill:#eea886;fill-opacity:1;fill-rule:nonzero;stroke:none"
            id="path668"/><path
            d="m 2972.29,4092.19 c 0,0 -35.56,-68.51 -0.3,-133.4 35.27,-64.88 104.55,28.26 109.02,39.19 4.49,10.93 28.24,72.74 -19,91.53 -47.26,18.78 -79.65,21.27 -89.72,2.68"
            style="fill:#eea886;fill-opacity:1;fill-rule:nonzero;stroke:none"
            id="path670"/><path
            d="m 2984.11,4067.88 c 0,0 -24.48,-32.15 -27.38,-55.9 0,0 -9.74,44.91 17.81,88.06 27.54,43.14 97.59,2.05 106.98,-15.19 9.37,-17.24 36.87,-32.43 -9.32,-106.51 0,0 -83.06,57.71 -88.09,89.54"
            style="fill:#464240;fill-opacity:1;fill-rule:nonzero;stroke:none"
            id="path672"/><path
            d="m 3040.92,3951.96 c 0,0 -6.17,-13.49 -30.28,-26.03 0.16,3.44 0.24,7.08 0.22,10.77 0,0 16.33,1.97 30.06,15.26"
            style="fill:#a77860;fill-opacity:1;fill-rule:nonzero;stroke:none"
            id="path674"/><path
            d="m 2681.6,3587.71 c 0,0 -16.9,-7.52 -24.93,-4.11 -8,3.41 -20.4,4.07 -24.3,4.08 -5.23,0.01 -21.59,5.85 -21.32,-0.55 0.29,-6.39 26.57,-10.85 31.95,-12.85 5.38,-1.99 -16.09,-13.81 -18.08,-19.06 -2,-5.25 22.24,-39.71 35.91,-29.89 13.67,9.82 21.07,29.42 23.85,30.66 2.79,1.25 10.27,6.75 10.27,6.75 l -13.35,24.97"
            style="fill:#eea886;fill-opacity:1;fill-rule:nonzero;stroke:none"
            id="path676"/><path
            d="m 2627.5,3558.27 c 0,0 -39.63,-32.86 -40.25,-37.3 -0.62,-4.44 1.47,-6.52 5.31,-3.6 3.84,2.92 39.31,30.63 39.31,30.63 0,0 -39.72,-46.9 -41.05,-50.38 -0.79,-2.04 3.02,-6.28 5.24,-4.91 2.22,1.37 44.45,45.53 44.45,45.53 0,0 -37,-43.87 -37.19,-47.15 -0.18,-2.87 4.27,-5.97 7.26,-2.91 2.99,3.06 39.81,41.76 39.81,41.76 0,0 -24.75,-33.68 -23.23,-36.64 0.94,-1.82 4.07,-5.62 10.16,3.28 6.09,8.9 22.83,28.3 22.83,28.3 l -32.65,33.39"
            style="fill:#eea886;fill-opacity:1;fill-rule:nonzero;stroke:none"
            id="path678"/><path
            d="m 3102.24,3353.19 h -116.7 c 0,0 -107.52,-8.61 -116.13,66.69 -8.63,75.32 35.35,117.15 35.35,117.15 0,0 56.8,-15.13 106.39,-27.1 24.82,5.27 54.74,8.7 89.68,7.81 0,0 210.2,-69.45 203.87,-106.02 0,0 -87.93,47.01 -202.46,-58.53"
            style="fill:#ff7e55;fill-opacity:1;fill-rule:nonzero;stroke:none"
            id="path680"/><path
            d="m 3026.28,3483.61 222.5,3.28 -112.34,-57.05 z"
            style="fill:#5e5853;fill-opacity:1;fill-rule:nonzero;stroke:none"
            id="path682"/><path
            d="m 3095.41,3512.04 c 0,0 -50.06,-19.38 -111.42,-1.85 l -2.87,22.91 126.34,-7.03 -12.05,-14.03"
            style="fill:#325bb3;fill-opacity:1;fill-rule:nonzero;stroke:none"
            id="path684"/><path
            d="m 3136.44,3429.84 -110.16,42.68 v 11.09 l 118.87,-42.88 -8.71,-10.89"
            style="fill:#91887f;fill-opacity:1;fill-rule:nonzero;stroke:none"
            id="path686"/><path
            d="m 3094.62,3501.44 c -0.58,-8.22 7.73,-14.15 15.32,-10.91 l 12.91,5.51 c 3.88,1.66 6.14,5.75 5.47,9.93 -5.38,33.65 -16.92,164.66 -0.04,187.15 6.23,8.3 10.11,15.59 12.3,21.95 11.14,-28.71 25,-65.7 30.51,-85.59 l 105.12,-139.85 35.25,-8.94 c -43.99,105.98 -79.32,162.13 -79.32,162.13 -6.88,18.47 -26.61,74.4 -44.08,124.2 -11.03,31.45 -21.16,60.45 -26.6,76.03 -2.76,7.9 -8.2,14.57 -15.39,18.85 -16.28,9.74 -43.41,25.08 -68.02,37.02 l -0.29,0.14 -2.35,1.14 -0.05,0.01 -0.01,0.01 c 46.77,-70.78 28.53,-270.67 19.3,-398.5 l -0.03,-0.28"
            style="fill:#eddad3;fill-opacity:1;fill-rule:nonzero;stroke:none"
            id="path688"/><path
            d="m 2920.97,3894.18 c -14.99,-2.31 -52.15,-38.39 -71.87,-74.8 -22.52,-41.56 -45.45,-88.87 -62.63,-104.43 -31.59,-28.63 -120.03,-129.8 -124.23,-127.35 -1.62,0.94 24.25,-30.21 27.54,-31.66 1.64,-0.73 145.35,123.8 159.15,142.77 13.1,17.99 48.09,93.48 58.56,91.82 l 0.02,-0.06 0.02,-0.03 c 0.8,-1.71 13.52,-29.31 25.59,-69.66 l 0.6,-2.01 c 8.31,-28.14 7.54,-58.69 3.04,-93.02 -3.4,-25.91 -22.74,-68.27 -34.4,-88.89 -1.41,-2.48 -1.05,-7.2 0.47,-10.79 v 0 c 0.91,-2.14 2.22,-3.88 3.83,-4.47 l 42.18,-15.63 9.92,-3.68 c 7.14,-2.64 14.63,-1.26 20.22,2.8 4.59,3.33 7.9,8.46 8.71,14.67 9.38,72.16 21.25,145.89 30.71,173.66 41.51,121.87 -16.22,213.44 -16.22,213.44 0,0 -68.06,-7.77 -81.21,-12.68"
            style="fill:#eddad3;fill-opacity:1;fill-rule:nonzero;stroke:none"
            id="path690"/><path
            d="m 3136.44,3429.84 66.19,180.71 213.36,-3.48 -63.08,-166.53 -216.47,-10.7"
            style="fill:#6e6760;fill-opacity:1;fill-rule:nonzero;stroke:none"
            id="path692"/><path
            d="m 3270.89,3530.61 c -6.5,-13.02 -4.54,-27.19 4.4,-31.66 8.94,-4.47 21.46,2.46 27.97,15.47 6.51,13.01 4.55,27.19 -4.4,31.66 -8.92,4.47 -21.45,-2.46 -27.97,-15.47"
            style="fill:#807066;fill-opacity:1;fill-rule:nonzero;stroke:none"
            id="path694"/><path
            d="m 3045.98,4023.97 c 0,0 13.66,-21.26 1.05,-39.62 -12.64,-18.35 3.18,-36.38 5.91,-55.78 2.75,-19.4 -52.7,-71.03 8.97,-97 61.66,-25.97 81.29,16.96 65.55,40.59 -15.73,23.63 -26.9,42.8 -28.23,76.48 -1.32,33.69 -12.41,86.2 -53.25,75.33"
            style="fill:#464240;fill-opacity:1;fill-rule:nonzero;stroke:none"
            id="path696"/><path
            d="m 2599.32,4279.14 h 262.81 v -230.62 l -40.11,40.12 h -222.7 v 190.5"
            style="fill:#78c2ff;fill-opacity:1;fill-rule:nonzero;stroke:none"
            id="path698"/></g></g></svg>
